<?xml version="1.0" encoding="iso-8859-1"?>

<svg version="1.1" id="Capa_1" xmlns="http://www.w3.org/2000/svg" xmlns:xlink="http://www.w3.org/1999/xlink" x="0px" y="0px"
	 viewBox="0 0 97 97" style="enable-background:new 0 0 97 97;" xml:space="preserve">
<polygon id="XMLID_205_" style="fill:#FFFFFF;" points="69.798,4.726 69.16,93.862 5.765,94.287 3.638,22.809 22.784,3.237 "/>
<rect id="XMLID_11_" x="15.995" y="16.332" style="fill:#00A3D3;" width="42.431" height="11.13"/>
<linearGradient id="XMLID_3_" gradientUnits="userSpaceOnUse" x1="52.8209" y1="53.9334" x2="89.0078" y2="90.1202">
	<stop  offset="0" style="stop-color:#3F578D"/>
	<stop  offset="1" style="stop-color:#009DD1"/>
</linearGradient>
<path id="XMLID_20_" style="fill:url(#XMLID_3_);" d="M70.914,47.051c-14.451,0-26.208,11.204-26.208,24.976
	c0,13.772,11.757,24.977,26.208,24.977c14.452,0,26.209-11.204,26.209-24.977C97.123,58.255,85.366,47.051,70.914,47.051z"/>
<path id="XMLID_17_" style="fill:#FFFFFF;" d="M84.48,69.857H68.904c0-2.382-0.001-4.764,0.001-7.146l-0.019,0
	c-3.993,3.196-7.989,6.389-11.981,9.586c3.998,3.202,8,6.401,12,9.601c0.001-2.396-0.002-4.791,0.001-7.187
	c0.088-0.001,0.175,0.007,0.262,0.009v-0.013H84.48V69.857z"/>
<path id="XMLID_16_" style="fill:#3F578D;" d="M13.375,13.823v37.76H48.12c1.867-1.919,3.991-3.603,6.322-5H34.625v-5.989h21.25
	v5.177c1.587-0.842,3.26-1.551,5-2.12V13.823H13.375z M55.875,24.812h-21.25v-5.989h21.25V24.812z M29.625,18.823v5.989h-11.25
	v-5.989H29.625z M29.625,29.812v5.783h-11.25v-5.783H29.625z M29.625,46.583h-11.25v-5.989h11.25V46.583z M34.625,35.594v-5.783
	h21.25v5.783H34.625z"/>
<g id="XMLID_4_">
	<circle id="XMLID_8_" style="fill:#3F578D;" cx="15.833" cy="60.701" r="3.833"/>
	<circle id="XMLID_30_" style="fill:#3F578D;" cx="15.833" cy="75.634" r="3.833"/>
	<path id="XMLID_31_" style="fill:#3F578D;" d="M26,58.07c-1.452,0-2.629,1.178-2.629,2.63s1.177,2.63,2.629,2.63h15.049
		c0.58-1.834,1.34-3.592,2.257-5.26H26z"/>
	<path id="XMLID_32_" style="fill:#3F578D;" d="M26,73.004c-1.452,0-2.629,1.178-2.629,2.63s1.177,2.63,2.629,2.63h14.39
		c-0.377-1.705-0.598-3.463-0.658-5.26H26z"/>
</g>
<linearGradient id="XMLID_9_" gradientUnits="userSpaceOnUse" x1="4.4632" y1="15.963" x2="69.589" y2="81.0888">
	<stop  offset="0" style="stop-color:#3F578D"/>
	<stop  offset="1" style="stop-color:#009DD1"/>
</linearGradient>
<path id="XMLID_10_" style="fill:url(#XMLID_9_);" d="M45.954,90H8.727C7.791,90,7,89.209,7,88.273V24.912h14.739c1.65,0,3-1.35,3-3
	V7.272c0-0.093-0.019-0.181-0.028-0.272h40.562C66.209,7,67,7.791,67,8.727v33.568c1.283-0.155,2.588-0.244,3.914-0.244
	c1.041,0,2.07,0.051,3.086,0.148V8.727C74,3.915,70.085,0,65.273,0H21.876c-0.929,0-1.818,0.369-2.475,1.025l-3.247,3.247
	L3.067,17.359l-2.042,2.042C0.369,20.058,0,20.948,0,21.876v66.397C0,93.085,3.915,97,8.727,97h44.951
	C50.708,95.103,48.093,92.733,45.954,90z"/>
</svg>
