<?xml version="1.0" encoding="iso-8859-1"?>

<svg version="1.1" id="Capa_1" xmlns="http://www.w3.org/2000/svg" xmlns:xlink="http://www.w3.org/1999/xlink" x="0px" y="0px"
	 viewBox="0 0 97 97" style="enable-background:new 0 0 97 97;" xml:space="preserve">
<polygon id="XMLID_101_" style="fill:#FFFFFF;" points="69.303,3.715 68.665,92.851 5.27,93.276 3.143,21.797 22.289,2.226 "/>
<path id="XMLID_5_" style="fill:#00A3D3;" d="M59.529,81.13c-0.017-0.057-0.033-0.114-0.045-0.151l-0.027-0.048
	c-0.342-0.372-0.715-0.724-1.075-1.063c-0.366-0.346-0.746-0.703-1.089-1.08l-0.056-0.061l-0.077,0.026
	c-0.354,0.119-0.662,0.322-0.959,0.519c-0.211,0.139-0.429,0.282-0.658,0.391c-0.957,0.477-2.142,0.592-3.606,0.362
	c-1.159-0.262-2.075-1.027-2.961-1.769c-0.4-0.335-0.813-0.681-1.245-0.978c-1.25-0.882-2.666-1.209-3.875-0.902
	c-1.683,0.322-3.022,1.367-4.47,2.595c-0.084,0.066-0.168,0.137-0.253,0.207c-0.395,0.328-0.801,0.667-1.305,0.718
	c0.014-0.389,0.038-0.785,0.161-1.155c0.489-1.552,1.266-3.018,2.017-4.435c0.243-0.458,0.486-0.917,0.719-1.377
	c0.419-0.799,0.548-1.533,0.376-2.204c-0.266-0.574-0.843-1.212-1.623-1.139c-0.989-0.134-1.695,0.484-2.378,1.085
	c-0.191,0.169-0.372,0.328-0.562,0.473c-0.937,0.764-1.872,1.564-2.776,2.339c-2.261,1.936-4.597,3.936-7.162,5.542
	c0.126-0.649,0.467-1.24,0.798-1.814c0.109-0.189,0.218-0.378,0.317-0.564c1.51-2.599,3.304-5.189,5.345-7.721
	c0.028-0.053,0.076-0.11,0.126-0.171c0.136-0.165,0.322-0.391,0.161-0.687c-0.323-0.362-0.679-0.7-1.023-1.027
	c-0.314-0.299-0.639-0.607-0.935-0.931l-0.086-0.095l-0.092,0.089c-0.836,0.8-1.625,1.672-2.387,2.515
	c-0.697,0.771-1.418,1.567-2.172,2.307h-0.001c-0.438,0.437-0.874,0.878-1.309,1.319c-1.973,1.999-4.013,4.066-6.347,5.696
	l-0.103,0.066c-0.712,0.461-1.521,0.984-2.307,0.605c-0.907-0.433-1.503-1.274-2.08-2.088c-0.177-0.25-0.353-0.498-0.537-0.734
	l-0.101-0.129l-0.098,0.132c-0.544,0.73-1.106,1.438-1.543,1.982c-0.03,0.045-0.069,0.093-0.109,0.142
	c-0.158,0.195-0.397,0.49-0.168,0.787c0.749,1.294,1.831,2.388,3.128,3.163c1.273,0.794,2.963,0.792,4.306-0.009
	c1.05-0.641,2.001-1.447,2.92-2.228c0.153-0.13,0.306-0.26,0.459-0.389c-0.074,0.915-0.017,2.086,0.812,2.865
	c1.001,1.064,2.597,1.077,3.733,0.618c1.628-0.641,3.027-1.688,4.558-2.892l0.453-0.361c0.724-0.576,1.469-1.17,2.175-1.798
	c-0.266,1.001-0.521,2.25-0.109,3.396c0.272,0.893,0.926,1.633,1.84,2.085c0.973,0.479,2.121,0.556,3.069,0.2
	c1.017-0.348,1.839-1.034,2.634-1.698c0.856-0.714,1.741-1.452,2.853-1.739c0.564,0.203,1.077,0.512,1.525,0.919
	c1.387,1.198,2.897,2.4,4.745,2.787c0.699,0.184,1.422,0.272,2.146,0.272c2.306,0,4.639-0.9,6.336-2.526l0.055-0.053L59.529,81.13z"
	/>
<g id="XMLID_9_">
	<linearGradient id="XMLID_7_" gradientUnits="userSpaceOnUse" x1="78.9463" y1="22.2031" x2="88.1459" y2="29.9225">
		<stop  offset="0" style="stop-color:#3F578D"/>
		<stop  offset="0.665" style="stop-color:#009DD1"/>
	</linearGradient>
	<path id="XMLID_4_" style="fill:url(#XMLID_7_);" d="M87.402,14.895c1.24-0.404,2.588,0.023,3.587,0.796
		c1.169,0.882,2.337,2.036,2.517,3.562c0.157,1.619-0.597,3.138-1.353,4.517c-1.617,2.813-3.665,5.343-5.655,7.893
		c-2.138,2.674-4.3,5.331-6.493,7.962c-3.091-2.503-6.137-5.064-9.194-7.608c1.639-2.129,3.412-4.154,5.125-6.226
		c2.34-2.759,4.663-5.549,7.279-8.055C84.455,16.593,85.772,15.431,87.402,14.895z"/>
	<linearGradient id="XMLID_8_" gradientUnits="userSpaceOnUse" x1="85.4346" y1="36.6848" x2="89.0263" y2="39.6986">
		<stop  offset="0" style="stop-color:#3F578D"/>
		<stop  offset="0.665" style="stop-color:#009DD1"/>
	</linearGradient>
	<path id="XMLID_3_" style="fill:url(#XMLID_8_);" d="M93.58,27.007c0.343-0.577,1.076-0.904,1.718-0.635
		c0.716,0.33,1.234,0.964,1.702,1.581v0.919c-3.463,5.262-7.615,10.017-11.515,14.949c-1.252,1.561-2.433,3.23-4.075,4.416
		c-0.823,0.588-1.765,1.137-2.804,1.144c-0.891,0.007-1.292-1.146-0.973-1.86c0.35-0.695,0.917-1.249,1.377-1.868
		c3.021-3.889,6.164-7.676,9.239-11.52C90.099,31.813,91.94,29.481,93.58,27.007z"/>
	<linearGradient id="XMLID_11_" gradientUnits="userSpaceOnUse" x1="54.5551" y1="51.4142" x2="63.7079" y2="59.0943">
		<stop  offset="0" style="stop-color:#3F578D"/>
		<stop  offset="0.665" style="stop-color:#009DD1"/>
	</linearGradient>
	<path id="XMLID_2_" style="fill:url(#XMLID_11_);" d="M68.55,34.736c0.727,0.446,1.335,1.056,2.003,1.584
		c2.395,2.008,4.842,3.959,7.2,6.011c-2.461,3.024-5.054,5.941-7.655,8.846c-4.742,5.23-9.629,10.342-14.878,15.066
		c-2.025,1.785-4.08,3.559-6.354,5.022c-0.861,0.512-1.752,1.066-2.763,1.2c-0.471,0.087-0.989-0.229-1.038-0.725
		c-0.121-0.832,0.152-1.655,0.401-2.438c0.839-2.382,2.079-4.593,3.32-6.781c3.425-5.888,7.339-11.473,11.363-16.964
		C62.874,41.891,65.662,38.275,68.55,34.736z"/>
</g>
<g id="XMLID_10_">
	<path id="XMLID_13_" style="fill:#3F578D;" d="M58.398,24.676H37.053c-1.657,0-3,1.343-3,3s1.343,3,3,3h21.345c1.657,0,3-1.343,3-3
		S60.056,24.676,58.398,24.676z"/>
	<path id="XMLID_17_" style="fill:#3F578D;" d="M13.053,56.833c0,1.657,1.343,3,3,3h24.829l4.671-6H16.053
		C14.396,53.833,13.053,55.176,13.053,56.833z"/>
	<path id="XMLID_18_" style="fill:#3F578D;" d="M13.053,42.254c0,1.657,1.343,3,3,3h36.18l4.671-6H16.053
		C14.396,39.254,13.053,40.598,13.053,42.254z"/>
</g>
<linearGradient id="XMLID_12_" gradientUnits="userSpaceOnUse" x1="81.0442" y1="12.192" x2="0.662" y2="92.5743">
	<stop  offset="0" style="stop-color:#3F578D"/>
	<stop  offset="1" style="stop-color:#009DD1"/>
</linearGradient>
<path id="XMLID_6_" style="fill:url(#XMLID_12_);" d="M74.026,17.264V8.783c0-4.812-3.915-8.727-8.727-8.727H21.902
	c-0.929,0-1.818,0.369-2.475,1.025L16.18,4.328L3.093,17.415l-2.042,2.042c-0.656,0.657-1.025,1.547-1.025,2.475V88.33
	c0,4.812,3.915,8.727,8.727,8.727h56.547c4.812,0,8.727-3.915,8.727-8.727V56.331l-7,8.991V88.33c0,0.936-0.791,1.727-1.727,1.727
	H8.752c-0.936,0-1.727-0.791-1.727-1.727V24.968h14.739c1.65,0,3-1.35,3-3V7.328c0-0.093-0.019-0.181-0.028-0.272h40.562
	c0.936,0,1.727,0.791,1.727,1.727v17.472L74.026,17.264z"/>
</svg>
