<?xml version="1.0" encoding="iso-8859-1"?>

<svg version="1.1" id="Capa_1" xmlns="http://www.w3.org/2000/svg" xmlns:xlink="http://www.w3.org/1999/xlink" x="0px" y="0px"
	 viewBox="0 0 97 97" style="enable-background:new 0 0 97 97;" xml:space="preserve">
<rect id="XMLID_1_" x="6.32" y="23.748" style="fill:#FFFFFF;" width="72.347" height="54.919"/>
<circle id="XMLID_25_" style="fill:#FFFFFF;" cx="72.654" cy="72.654" r="21.137"/>
<linearGradient id="XMLID_7_" gradientUnits="userSpaceOnUse" x1="55.4776" y1="55.6958" x2="89.8278" y2="90.0461">
	<stop  offset="0" style="stop-color:#3F578D"/>
	<stop  offset="1" style="stop-color:#009DD1"/>
</linearGradient>
<path id="XMLID_21_" style="fill:url(#XMLID_7_);" d="M65.651,49.69c11.44-3.664,24.917,2.553,29.406,13.708
	c4.76,10.545,0.463,24.06-9.488,29.946c-10.214,6.65-25.125,3.957-32.33-5.886c-6.966-8.794-6.441-22.41,1.18-30.648
	C57.404,53.455,61.354,50.979,65.651,49.69z M54.604,71.12c1.281,0.293,3.047-0.185,3.764,1.234
	c0.386,2.253-2.299,2.114-3.764,2.237c0.91,8.354,7.946,15.282,16.277,16.177c0.177-1.396-0.062-3.988,2.098-3.741
	c1.628,0.478,1.103,2.515,1.396,3.749c8.347-0.887,15.413-7.807,16.315-16.184c-1.458-0.123-4.158,0.031-3.749-2.214
	c0.656-1.466,2.476-0.957,3.734-1.25C89.788,62.75,82.73,55.8,74.368,54.936c-0.324,1.234,0.278,3.217-1.342,3.718
	c-2.229,0.347-1.929-2.314-2.145-3.71C62.534,55.823,55.522,62.773,54.604,71.12z"/>
<path id="XMLID_3_" style="fill:#336699;" d="M81.355,70.413h-5.729c-0.763-1.029-1.976-1.705-3.356-1.705c0,0,0,0,0,0l-5.086-7.154
	c-0.785-1.103-2.313-1.358-3.417-0.577c-1.103,0.784-1.361,2.313-0.577,3.417l5.12,7.201c-0.135,0.412-0.227,0.843-0.227,1.3
	c0,2.313,1.875,4.188,4.188,4.188c1.41,0,2.65-0.702,3.409-1.77h5.675c1.354,0,2.45-1.097,2.45-2.45S82.709,70.413,81.355,70.413z"
	/>
<path id="XMLID_32_" style="fill:#00A3D3;" d="M22.466,18.509c2.175,0,3.938-1.763,3.938-3.938V3.869
	c0-2.175-1.763-3.938-3.938-3.938s-3.938,1.763-3.938,3.938v10.702C18.528,16.746,20.292,18.509,22.466,18.509z"/>
<path id="XMLID_34_" style="fill:#00A3D3;" d="M61.845,18.509c2.175,0,3.938-1.763,3.938-3.938V3.869
	c0-2.175-1.763-3.938-3.938-3.938s-3.938,1.763-3.938,3.938v10.702C57.907,16.746,59.67,18.509,61.845,18.509z"/>
<linearGradient id="XMLID_9_" gradientUnits="userSpaceOnUse" x1="26.4043" y1="9.2202" x2="18.5283" y2="9.2202">
	<stop  offset="0" style="stop-color:#FFFFFF"/>
	<stop  offset="0.5" style="stop-color:#FFFFFF;stop-opacity:0"/>
</linearGradient>
<path id="XMLID_4_" style="fill:url(#XMLID_9_);" d="M22.466,18.509c2.175,0,3.938-1.763,3.938-3.938V3.869
	c0-2.175-1.763-3.938-3.938-3.938s-3.938,1.763-3.938,3.938v10.702C18.528,16.746,20.292,18.509,22.466,18.509z"/>
<linearGradient id="XMLID_11_" gradientUnits="userSpaceOnUse" x1="65.7822" y1="9.2202" x2="57.9072" y2="9.2202">
	<stop  offset="0" style="stop-color:#FFFFFF"/>
	<stop  offset="0.5" style="stop-color:#FFFFFF;stop-opacity:0"/>
</linearGradient>
<path id="XMLID_5_" style="fill:url(#XMLID_11_);" d="M61.845,18.509c2.175,0,3.938-1.763,3.938-3.938V3.869
	c0-2.175-1.763-3.938-3.938-3.938s-3.938,1.763-3.938,3.938v10.702C57.907,16.746,59.67,18.509,61.845,18.509z"/>
<g id="XMLID_6_">
	<path id="XMLID_8_" style="fill:#00A3D3;" d="M27.063,35.49h-5.97c-1.65,0-3,1.35-3,3v5.97c0,1.65,1.35,3,3,3h5.97
		c1.65,0,3-1.35,3-3v-5.97C30.063,36.84,28.713,35.49,27.063,35.49z"/>
	<path id="XMLID_14_" style="fill:#00A3D3;" d="M45.284,35.49h-5.97c-1.65,0-3,1.35-3,3v5.97c0,1.65,1.35,3,3,3h5.97
		c1.65,0,3-1.35,3-3v-5.97C48.284,36.84,46.934,35.49,45.284,35.49z"/>
	<path id="XMLID_15_" style="fill:#00A3D3;" d="M27.063,53.777h-5.97c-1.65,0-3,1.35-3,3v5.97c0,1.65,1.35,3,3,3h5.97
		c1.65,0,3-1.35,3-3v-5.97C30.063,55.127,28.713,53.777,27.063,53.777z"/>
	<path id="XMLID_16_" style="fill:#00A3D3;" d="M63.506,35.49h-5.97c-1.65,0-3,1.35-3,3v5.97c0,1.162,0.676,2.163,1.648,2.661
		c0.377-0.238,0.76-0.466,1.148-0.688c0.019-0.011,0.038-0.022,0.057-0.033c0.374-0.212,0.753-0.416,1.137-0.612
		c0.036-0.018,0.071-0.037,0.107-0.055c0.372-0.189,0.748-0.369,1.128-0.543c0.05-0.023,0.101-0.046,0.151-0.068
		c0.371-0.167,0.745-0.327,1.124-0.479c0.061-0.025,0.123-0.049,0.185-0.073c0.374-0.147,0.75-0.288,1.131-0.421
		c0.066-0.023,0.132-0.045,0.198-0.067c0.381-0.13,0.765-0.254,1.152-0.369c0.063-0.019,0.128-0.036,0.191-0.054
		c0.395-0.115,0.793-0.223,1.195-0.322c0.046-0.011,0.093-0.021,0.139-0.032c0.423-0.102,0.848-0.197,1.278-0.281l0.001,0V38.49
		C66.506,36.84,65.156,35.49,63.506,35.49z"/>
	<path id="XMLID_18_" style="fill:#00A3D3;" d="M45.284,53.777h-5.97c-1.65,0-3,1.35-3,3v5.97c0,1.65,1.35,3,3,3h3.492
		c0,0,0-0.001,0-0.001c0.469-1.957,1.126-3.839,1.953-5.628c0-0.001,0.001-0.002,0.001-0.003c0.206-0.446,0.423-0.886,0.65-1.32
		c0.001-0.001,0.001-0.003,0.002-0.004c0.227-0.433,0.463-0.86,0.709-1.28c0.001-0.003,0.003-0.005,0.004-0.008
		c0.247-0.421,0.503-0.835,0.769-1.242c0.001-0.002,0.002-0.003,0.003-0.005c0.267-0.409,0.543-0.81,0.829-1.205c0,0,0,0,0,0
		C47.183,54.284,46.292,53.777,45.284,53.777z"/>
</g>
<linearGradient id="XMLID_12_" gradientUnits="userSpaceOnUse" x1="6.2914" y1="9.8463" x2="63.577" y2="67.1319">
	<stop  offset="0" style="stop-color:#3F578D"/>
	<stop  offset="1" style="stop-color:#009DD1"/>
</linearGradient>
<path id="XMLID_10_" style="fill:url(#XMLID_12_);" d="M43.623,82.76c-0.029-0.084-0.057-0.169-0.086-0.254
	c-0.629-1.878-1.078-3.837-1.33-5.859H13.955c-3.342,0-6.062-2.719-6.062-6.062V26.357h69.576v16.533
	c0.692,0.117,1.375,0.257,2.05,0.42c0.002,0,0.003,0.001,0.005,0.001c1.315,0.318,2.595,0.721,3.837,1.204
	c0.074,0.029,0.147,0.058,0.22,0.087c0.597,0.237,1.187,0.489,1.764,0.762l0,0V21.886c0-7.686-6.253-13.938-13.938-13.938h-1.772
	v6.557c0,4.35-3.526,7.875-7.876,7.875s-7.876-3.526-7.876-7.875V7.947H30.256v6.557c0,4.35-3.526,7.875-7.875,7.875
	s-7.875-3.526-7.875-7.875V7.947h-0.55c-7.686,0-13.938,6.253-13.938,13.938v48.7c0,7.686,6.253,13.938,13.938,13.938h30.333
	c0,0,0-0.001,0-0.001C44.047,83.945,43.828,83.356,43.623,82.76z"/>
</svg>
