<?xml version="1.0" encoding="iso-8859-1"?>

<svg version="1.1" id="Capa_1" xmlns="http://www.w3.org/2000/svg" xmlns:xlink="http://www.w3.org/1999/xlink" x="0px" y="0px"
	 viewBox="0 0 97 97" style="enable-background:new 0 0 97 97;" xml:space="preserve">
<g id="XMLID_45_">
	<linearGradient id="XMLID_18_" gradientUnits="userSpaceOnUse" x1="9.7123" y1="58.597" x2="26.5232" y2="58.597">
		<stop  offset="0" style="stop-color:#3F578D"/>
		<stop  offset="1" style="stop-color:#009DD1"/>
	</linearGradient>
	<path id="XMLID_10_" style="fill:url(#XMLID_18_);" d="M16.412,48.971c2.243-0.495,4.684,0.034,6.519,1.413
		c2.257,1.635,3.59,4.399,3.591,7.172c-0.006,2.59-0.912,5.141-2.397,7.251c-1.107,1.545-2.628,2.903-4.5,3.408
		c-1.709,0.484-3.58,0.006-5.006-1.005c-1.974-1.365-3.345-3.457-4.181-5.677c-0.766-2.097-1.005-4.443-0.334-6.599
		C10.957,52.024,13.418,49.588,16.412,48.971z"/>
	<linearGradient id="XMLID_19_" gradientUnits="userSpaceOnUse" x1="0.0015" y1="84.1833" x2="36.2257" y2="84.1833">
		<stop  offset="0" style="stop-color:#3F578D"/>
		<stop  offset="1" style="stop-color:#009DD1"/>
	</linearGradient>
	<path id="XMLID_7_" style="fill:url(#XMLID_19_);" d="M5.017,72.474c1.991-0.366,3.984-0.711,5.977-1.062
		c0.565-0.152,1.174,0.089,1.504,0.565c1.904,2.605,3.715,5.283,5.647,7.868c1.809-2.602,3.671-5.165,5.499-7.754
		c0.328-0.52,0.96-0.844,1.574-0.683c1.955,0.338,3.908,0.692,5.863,1.037c1.879,0.307,3.622,1.91,3.698,3.876
		c0.722,6.104,1.983,12.254,1.198,18.416c-0.142,1.168-1.151,2.095-2.298,2.262H2.556c-1.092-0.159-2.069-0.999-2.274-2.101
		c-0.174-1.142-0.209-2.3-0.281-3.451v-2.154c0.214-4.377,0.922-8.708,1.458-13.054C1.568,74.353,3.221,72.819,5.017,72.474z"/>
</g>
<g id="XMLID_6_">
	<linearGradient id="XMLID_20_" gradientUnits="userSpaceOnUse" x1="72.5328" y1="51.8011" x2="85.3357" y2="64.604">
		<stop  offset="0" style="stop-color:#3F578D"/>
		<stop  offset="1" style="stop-color:#009DD1"/>
	</linearGradient>
	<path id="XMLID_8_" style="fill:url(#XMLID_20_);" d="M75.394,67.199c1.426,1.013,3.296,1.502,5.01,1.018
		c1.885-0.501,3.413-1.872,4.526-3.428c1.475-2.105,2.378-4.646,2.382-7.228c0.002-2.778-1.339-5.547-3.599-7.181
		c-1.834-1.375-4.27-1.902-6.51-1.407c-2.989,0.614-5.452,3.043-6.303,5.947c-0.683,2.171-0.436,4.538,0.341,6.648
		C72.074,63.77,73.441,65.839,75.394,67.199z"/>
	<linearGradient id="XMLID_21_" gradientUnits="userSpaceOnUse" x1="65.1394" y1="72.0426" x2="92.6671" y2="99.5703">
		<stop  offset="0" style="stop-color:#3F578D"/>
		<stop  offset="1" style="stop-color:#009DD1"/>
	</linearGradient>
	<path id="XMLID_28_" style="fill:url(#XMLID_21_);" d="M95.558,76.236c-0.104-1.883-1.764-3.419-3.557-3.762
		c-1.989-0.364-3.984-0.713-5.975-1.062c-0.614-0.165-1.255,0.144-1.585,0.666c-1.841,2.59-3.686,5.181-5.529,7.771
		c-1.862-2.569-3.681-5.173-5.531-7.75c-0.3-0.451-0.823-0.825-1.39-0.715c-1.458,0.231-2.911,0.512-4.369,0.76
		c-1.106,0.237-2.296,0.273-3.279,0.891c-1.088,0.671-2.004,1.798-2.082,3.117c-0.677,5.837-1.885,11.692-1.324,17.593
		c0.059,0.7,0.089,1.449,0.503,2.048c0.415,0.669,1.147,1.075,1.91,1.206h31.131c1.085-0.171,2.054-1.007,2.257-2.105
		c0.173-1.088,0.192-2.19,0.286-3.286v-2.131C96.83,85.037,96.097,80.643,95.558,76.236z"/>
</g>
<g id="XMLID_29_">
	<linearGradient id="XMLID_22_" gradientUnits="userSpaceOnUse" x1="86.9265" y1="54.747" x2="71.3927" y2="61.9906">
		<stop  offset="0" style="stop-color:#FFFFFF"/>
		<stop  offset="0.25" style="stop-color:#FFFFFF;stop-opacity:0"/>
	</linearGradient>
	<path id="XMLID_34_" style="fill:url(#XMLID_22_);" d="M75.394,67.199c1.426,1.013,3.296,1.502,5.01,1.018
		c1.885-0.501,3.413-1.872,4.526-3.428c1.475-2.105,2.378-4.646,2.382-7.228c0.002-2.778-1.339-5.547-3.599-7.181
		c-1.834-1.375-4.27-1.902-6.51-1.407c-2.989,0.614-5.452,3.043-6.303,5.947c-0.683,2.171-0.436,4.538,0.341,6.648
		C72.074,63.77,73.441,65.839,75.394,67.199z"/>
	<linearGradient id="XMLID_23_" gradientUnits="userSpaceOnUse" x1="96.28" y1="77.1954" x2="60.512" y2="93.8743">
		<stop  offset="0" style="stop-color:#FFFFFF"/>
		<stop  offset="0.25" style="stop-color:#FFFFFF;stop-opacity:0"/>
	</linearGradient>
	<path id="XMLID_33_" style="fill:url(#XMLID_23_);" d="M95.558,76.236c-0.104-1.883-1.764-3.419-3.557-3.762
		c-1.989-0.364-3.984-0.713-5.975-1.062c-0.614-0.165-1.255,0.144-1.585,0.666c-1.841,2.59-3.686,5.181-5.529,7.771
		c-1.862-2.569-3.681-5.173-5.531-7.75c-0.3-0.451-0.823-0.825-1.39-0.715c-1.458,0.231-2.911,0.512-4.369,0.76
		c-1.106,0.237-2.296,0.273-3.279,0.891c-1.088,0.671-2.004,1.798-2.082,3.117c-0.677,5.837-1.885,11.692-1.324,17.593
		c0.059,0.7,0.089,1.449,0.503,2.048c0.415,0.669,1.147,1.075,1.91,1.206h31.131c1.085-0.171,2.054-1.007,2.257-2.105
		c0.173-1.088,0.192-2.19,0.286-3.286v-2.131C96.83,85.037,96.097,80.643,95.558,76.236z"/>
</g>
<g id="XMLID_35_">
	<linearGradient id="XMLID_25_" gradientUnits="userSpaceOnUse" x1="26.1334" y1="54.747" x2="10.5995" y2="61.9906">
		<stop  offset="0" style="stop-color:#FFFFFF"/>
		<stop  offset="0.25" style="stop-color:#FFFFFF;stop-opacity:0"/>
	</linearGradient>
	<path id="XMLID_37_" style="fill:url(#XMLID_25_);" d="M14.601,67.199c1.426,1.013,3.296,1.502,5.01,1.018
		c1.885-0.501,3.413-1.872,4.526-3.428c1.475-2.105,2.378-4.646,2.382-7.228c0.002-2.778-1.339-5.547-3.599-7.181
		c-1.834-1.375-4.27-1.902-6.51-1.407c-2.989,0.614-5.452,3.043-6.303,5.947c-0.683,2.171-0.436,4.538,0.341,6.648
		C11.281,63.77,12.648,65.839,14.601,67.199z"/>
	<linearGradient id="XMLID_26_" gradientUnits="userSpaceOnUse" x1="35.4868" y1="77.1954" x2="-0.2812" y2="93.8743">
		<stop  offset="0" style="stop-color:#FFFFFF"/>
		<stop  offset="0.25" style="stop-color:#FFFFFF;stop-opacity:0"/>
	</linearGradient>
	<path id="XMLID_36_" style="fill:url(#XMLID_26_);" d="M34.765,76.236c-0.104-1.883-1.764-3.419-3.557-3.762
		c-1.989-0.364-3.984-0.713-5.975-1.062c-0.614-0.165-1.255,0.144-1.585,0.666c-1.841,2.59-3.686,5.181-5.529,7.771
		c-1.862-2.569-3.681-5.173-5.531-7.75c-0.3-0.451-0.823-0.825-1.39-0.715c-1.458,0.231-2.911,0.512-4.369,0.76
		c-1.106,0.237-2.296,0.273-3.279,0.891c-1.088,0.671-2.004,1.798-2.082,3.117C0.79,81.989-0.418,87.845,0.143,93.746
		c0.059,0.7,0.089,1.449,0.503,2.048c0.415,0.669,1.147,1.075,1.91,1.206h31.131c1.085-0.171,2.054-1.007,2.257-2.105
		c0.173-1.088,0.192-2.19,0.286-3.286v-2.131C36.037,85.037,35.303,80.643,34.765,76.236z"/>
</g>
<g id="XMLID_11_">
	<linearGradient id="XMLID_27_" gradientUnits="userSpaceOnUse" x1="42.1225" y1="2.9177" x2="54.926" y2="15.7212">
		<stop  offset="0" style="stop-color:#3F578D"/>
		<stop  offset="1" style="stop-color:#009DD1"/>
	</linearGradient>
	<path id="XMLID_12_" style="fill:url(#XMLID_27_);" d="M44.282,17.775c1.483,1.301,3.557,2.078,5.526,1.606
		c1.991-0.461,3.603-1.9,4.754-3.535c1.489-2.158,2.393-4.763,2.332-7.399c-0.064-2.772-1.473-5.501-3.772-7.073
		c-1.17-0.838-2.571-1.293-3.992-1.462h-0.956c-2.211,0.104-4.354,1.126-5.814,2.791c-1.891,2.092-2.641,5.099-2.103,7.852
		C40.77,13.303,42.152,15.939,44.282,17.775z"/>
	<linearGradient id="XMLID_30_" gradientUnits="userSpaceOnUse" x1="36.2203" y1="21.665" x2="60.7683" y2="46.213">
		<stop  offset="0" style="stop-color:#3F578D"/>
		<stop  offset="1" style="stop-color:#009DD1"/>
	</linearGradient>
	<path id="XMLID_24_" style="fill:url(#XMLID_30_);" d="M65.15,27.392c-0.085-1.908-1.771-3.474-3.588-3.802
		c-2.004-0.366-4.011-0.721-6.017-1.071c-0.559-0.133-1.147,0.15-1.464,0.612c-1.864,2.609-3.715,5.228-5.586,7.833
		c-1.879-2.602-3.719-5.232-5.592-7.837c-0.33-0.485-0.95-0.751-1.526-0.603c-2.056,0.383-4.122,0.709-6.172,1.115
		c-1.727,0.41-3.288,1.928-3.37,3.762c-0.487,3.921-1.123,7.828-1.377,11.774c-0.163,1.498,1.187,2.878,2.676,2.833
		c10.304-0.023,20.608,0.008,30.913-0.015c1.415-0.036,2.624-1.405,2.492-2.812C66.257,35.232,65.645,31.318,65.15,27.392z"/>
</g>
<g id="XMLID_13_">
	<linearGradient id="XMLID_31_" gradientUnits="userSpaceOnUse" x1="56.5166" y1="5.8731" x2="40.9841" y2="13.1161">
		<stop  offset="0" style="stop-color:#FFFFFF"/>
		<stop  offset="0.25" style="stop-color:#FFFFFF;stop-opacity:0"/>
	</linearGradient>
	<path id="XMLID_16_" style="fill:url(#XMLID_31_);" d="M44.282,17.775c1.483,1.301,3.557,2.078,5.526,1.606
		c1.991-0.461,3.603-1.9,4.754-3.535c1.489-2.158,2.393-4.763,2.332-7.399c-0.064-2.772-1.473-5.501-3.772-7.073
		c-1.17-0.838-2.571-1.293-3.992-1.462h-0.956c-2.211,0.104-4.354,1.126-5.814,2.791c-1.891,2.092-2.641,5.099-2.103,7.852
		C40.77,13.303,42.152,15.939,44.282,17.775z"/>
	<linearGradient id="XMLID_32_" gradientUnits="userSpaceOnUse" x1="64.7143" y1="25.8371" x2="31.1611" y2="41.4832">
		<stop  offset="0" style="stop-color:#FFFFFF"/>
		<stop  offset="0.25" style="stop-color:#FFFFFF;stop-opacity:0"/>
	</linearGradient>
	<path id="XMLID_15_" style="fill:url(#XMLID_32_);" d="M65.15,27.392c-0.085-1.908-1.771-3.474-3.588-3.802
		c-2.004-0.366-4.011-0.721-6.017-1.071c-0.559-0.133-1.147,0.15-1.464,0.612c-1.864,2.609-3.715,5.228-5.586,7.833
		c-1.879-2.602-3.719-5.232-5.592-7.837c-0.33-0.485-0.95-0.751-1.526-0.603c-2.056,0.383-4.122,0.709-6.172,1.115
		c-1.727,0.41-3.288,1.928-3.37,3.762c-0.487,3.921-1.123,7.828-1.377,11.774c-0.163,1.498,1.187,2.878,2.676,2.833
		c10.304-0.023,20.608,0.008,30.913-0.015c1.415-0.036,2.624-1.405,2.492-2.812C66.257,35.232,65.645,31.318,65.15,27.392z"/>
</g>
<path id="XMLID_14_" style="fill:#00A3D3;" d="M58.405,66.647c-4.871-5.028-8.396-11.366-9.993-18.437l0,0.001
	c-1.594,7.055-5.107,13.382-9.962,18.405l-0.034,0.063c3.126-0.811,6.404-1.243,9.783-1.243c3.461,0,6.815,0.455,10.009,1.304h0.248
	L58.405,66.647z"/>
</svg>
