<?xml version="1.0" encoding="iso-8859-1"?>

<svg version="1.1" id="Capa_1" xmlns="http://www.w3.org/2000/svg" xmlns:xlink="http://www.w3.org/1999/xlink" x="0px" y="0px"
	 viewBox="0 0 97 97" style="enable-background:new 0 0 97 97;" xml:space="preserve">
<path id="XMLID_3_" style="fill:#3F578D;" d="M6.062,90.938c0-4.041,0-8.084,0-12.125c2.021-0.002,6.041,0.002,8.063,0
	c0-2.021,0-4.041,0-6.063c-2.021-0.002-6.041,0.002-8.063,0c0-4.043,0-8.084,0-12.125c2.021-0.002,6.041,0.002,8.063,0
	c0-2.021,0-4.041,0-6.062c-2.021-0.002-6.041,0.002-8.063,0c0-4.043,0-8.084,0-12.125c2.021-0.002,6.041,0.002,8.063,0
	c0-2.021,0-4.041,0-6.063c-2.021-0.002-6.041,0.002-8.063,0c0-4.041,0-8.084,0-12.125c2.021-0.002,6.041,0.002,8.063,0
	c0-2.021,0-4.041,0-6.062c-2.021-0.002-6.041,0.002-8.063,0c0-4.041,0-8.082,0-12.125c2.021-0.002,6.041,0.002,8.063,0
	c0-2.022,0-4.041,0-6.063H0v97h97v-6.062C66.687,90.938,36.375,90.938,6.062,90.938z"/>
<g id="XMLID_30_">
	<circle id="XMLID_33_" style="fill:#00A3D3;" cx="42.071" cy="46.017" r="5.124"/>
	<circle id="XMLID_34_" style="fill:#00A3D3;" cx="42.071" cy="56.876" r="4.18"/>
	<circle id="XMLID_35_" style="fill:#00A3D3;" cx="42.071" cy="67.949" r="3.062"/>
	<circle id="XMLID_36_" style="fill:#00A3D3;" cx="42.071" cy="79.768" r="2.014"/>
	<circle id="XMLID_37_" style="fill:#00A3D3;" cx="53.071" cy="46.017" r="5.124"/>
	<circle id="XMLID_38_" style="fill:#00A3D3;" cx="53.071" cy="56.876" r="4.18"/>
	<circle id="XMLID_39_" style="fill:#00A3D3;" cx="53.071" cy="67.949" r="3.062"/>
	<circle id="XMLID_40_" style="fill:#00A3D3;" cx="53.071" cy="79.768" r="2.014"/>
	<path id="XMLID_43_" style="fill:#00A3D3;" d="M66.079,28.159c2.292-0.824,3.934-3.01,3.934-5.586c0-1.623-0.652-3.092-1.707-4.164
		c1.192-1.126,1.939-2.716,1.939-4.485c0-3.41-2.764-6.174-6.174-6.174c-2.403,0-4.48,1.375-5.5,3.379
		c-1.02-2.004-3.097-3.379-5.5-3.379s-4.48,1.375-5.5,3.379c-1.02-2.004-3.097-3.379-5.5-3.379c-3.41,0-6.174,2.764-6.174,6.174
		c0,1.769,0.748,3.359,1.939,4.485c-1.055,1.072-1.707,2.542-1.707,4.164c0,2.576,1.642,4.762,3.934,5.586
		c-2.332,0.827-4.005,3.046-4.005,5.662c0,3.32,2.692,6.012,6.012,6.012c2.458,0,4.568-1.477,5.5-3.589
		c0.932,2.113,3.042,3.589,5.5,3.589s4.568-1.477,5.5-3.589c0.932,2.113,3.042,3.589,5.5,3.589c3.32,0,6.012-2.692,6.012-6.012
		C70.083,31.206,68.41,28.987,66.079,28.159z M58.571,16.719c0.323,0.635,0.752,1.205,1.265,1.69
		c-0.539,0.548-0.97,1.199-1.265,1.922c-0.295-0.723-0.727-1.374-1.265-1.922C57.819,17.924,58.248,17.354,58.571,16.719z
		 M47.571,16.719c0.323,0.635,0.752,1.205,1.265,1.69c-0.539,0.548-0.97,1.199-1.265,1.922c-0.295-0.723-0.727-1.374-1.265-1.922
		C46.819,17.924,47.248,17.354,47.571,16.719z M47.571,31.398c-0.665-1.507-1.93-2.684-3.492-3.239
		c1.585-0.57,2.858-1.79,3.492-3.343c0.634,1.553,1.907,2.773,3.492,3.343C49.501,28.714,48.236,29.891,47.571,31.398z
		 M58.571,31.398c-0.665-1.507-1.93-2.684-3.492-3.239c1.585-0.57,2.858-1.79,3.492-3.343c0.634,1.553,1.907,2.773,3.492,3.343
		C60.501,28.714,59.236,29.891,58.571,31.398z"/>
	<circle id="XMLID_47_" style="fill:#00A3D3;" cx="64.071" cy="46.017" r="5.124"/>
	<circle id="XMLID_48_" style="fill:#00A3D3;" cx="64.071" cy="56.876" r="4.18"/>
	<circle id="XMLID_49_" style="fill:#00A3D3;" cx="64.071" cy="67.949" r="3.062"/>
	<circle id="XMLID_50_" style="fill:#00A3D3;" cx="64.071" cy="79.768" r="2.014"/>
</g>
</svg>
