<?xml version="1.0" encoding="iso-8859-1"?>

<svg version="1.1" id="Capa_1" xmlns="http://www.w3.org/2000/svg" xmlns:xlink="http://www.w3.org/1999/xlink" x="0px" y="0px"
	 viewBox="0 0 97 97" style="enable-background:new 0 0 97 97;" xml:space="preserve">
<g id="XMLID_6_">
	<circle id="XMLID_4_" style="fill:#FFFFFF;" cx="34.317" cy="34.309" r="22.285"/>
	<g id="XMLID_14_">
		<g id="XMLID_17_">
			<linearGradient id="XMLID_15_" gradientUnits="userSpaceOnUse" x1="10.071" y1="10.0255" x2="58.638" y2="58.5925">
				<stop  offset="0" style="stop-color:#3F578D"/>
				<stop  offset="1" style="stop-color:#009DD1"/>
			</linearGradient>
			<path id="XMLID_18_" style="fill:url(#XMLID_15_);" d="M16.288,5.563C16.004,4.388,16.7,3.08,17.834,2.658
				c2.035-0.826,4.07-1.644,6.108-2.462c1.072-0.471,2.449-0.052,3.072,0.941c1.184,1.912,2.359,3.83,3.54,5.743
				c2.623-0.36,5.295-0.324,7.913,0.056c1.111-1.743,2.227-3.484,3.338-5.227c0.392-0.717,1.019-1.35,1.851-1.509
				c0.644-0.164,1.313-0.002,1.896,0.288c1.925,0.823,3.855,1.639,5.781,2.458c1.083,0.472,1.728,1.763,1.418,2.91
				c-0.533,2.155-1.029,4.321-1.576,6.472c2.032,1.612,3.891,3.452,5.429,5.548c2.19-0.484,4.383-0.956,6.575-1.442
				c1.104-0.246,2.332,0.365,2.762,1.419c0.85,2.077,1.683,4.161,2.52,6.243c0.474,1.069,0.095,2.441-0.892,3.08
				c-1.928,1.209-3.891,2.363-5.816,3.575c0.324,2.553,0.305,5.155-0.085,7.7c1.906,1.244,3.835,2.451,5.743,3.689
				c0.956,0.66,1.332,2.014,0.86,3.075c-0.868,2.034-1.73,4.069-2.6,6.101c-0.472,1.131-1.829,1.759-3,1.415
				c-2.12-0.531-4.256-1.003-6.371-1.556c-1.629,2.021-3.466,3.889-5.56,5.43c0.472,2.183,0.962,4.363,1.426,6.549
				c0.269,1.155-0.402,2.432-1.507,2.865c-2.09,0.848-4.178,1.699-6.276,2.525c-1.075,0.41-2.387-0.053-2.982-1.032
				c-1.16-1.914-2.338-3.818-3.495-5.733c-2.505,0.328-5.054,0.309-7.556-0.046c-1.202,1.883-2.413,3.763-3.62,5.644
				c-0.472,0.783-1.4,1.242-2.308,1.182c-0.592-0.029-1.122-0.322-1.658-0.546c-1.712-0.726-3.422-1.457-5.133-2.185
				c-0.845-0.305-1.493-1.084-1.628-1.974c-0.121-0.656,0.123-1.297,0.26-1.931c0.448-1.833,0.869-3.674,1.352-5.499
				c-2.032-1.611-3.92-3.421-5.464-5.514c-2.19,0.476-4.379,0.959-6.572,1.426c-1.173,0.295-2.494-0.402-2.914-1.537
				c-0.823-2.041-1.649-4.081-2.467-6.124c-0.424-1.008-0.105-2.277,0.774-2.935c1.944-1.258,3.938-2.436,5.901-3.662
				c-0.368-2.564-0.329-5.174,0.015-7.737c-1.912-1.231-3.83-2.449-5.737-3.688c-0.961-0.633-1.35-1.976-0.9-3.03
				c0.86-2.04,1.73-4.075,2.598-6.111c0.432-1.085,1.688-1.761,2.83-1.496c2.193,0.509,4.375,1.067,6.57,1.572
				c1.561-2.049,3.393-3.902,5.465-5.437C17.247,9.954,16.752,7.762,16.288,5.563z M24.734,16.199
				c-2.056,1.086-3.926,2.522-5.499,4.234c-3.168,3.439-5.096,7.98-5.376,12.647c-0.262,4.189,0.825,8.44,3.03,12.011
				c2.342,3.811,5.979,6.801,10.165,8.375c4.062,1.557,8.628,1.766,12.81,0.568c4.578-1.27,8.667-4.195,11.347-8.117
				c2.913-4.22,4.159-9.56,3.375-14.632c-0.626-4.222-2.605-8.237-5.597-11.285c-3.338-3.446-7.932-5.645-12.708-6.09
				C32.317,13.511,28.254,14.342,24.734,16.199z"/>
		</g>
		<linearGradient id="XMLID_21_" gradientUnits="userSpaceOnUse" x1="24.3424" y1="24.3354" x2="44.2932" y2="44.2862">
			<stop  offset="0" style="stop-color:#3F578D"/>
			<stop  offset="1" style="stop-color:#009DD1"/>
		</linearGradient>
		<path id="XMLID_16_" style="fill:url(#XMLID_21_);" d="M28.049,21.671c2.764-1.363,5.977-1.815,9.002-1.197
			c3.178,0.62,6.124,2.376,8.17,4.888c2.172,2.637,3.341,6.086,3.193,9.5c-0.118,3.123-1.313,6.191-3.339,8.571
			c-1.778,2.119-4.207,3.673-6.865,4.432c-3.154,0.927-6.634,0.678-9.631-0.672c-2.906-1.279-5.35-3.581-6.792-6.411
			c-1.472-2.837-1.948-6.183-1.285-9.312C21.343,27.276,24.2,23.547,28.049,21.671z"/>
	</g>
	<linearGradient id="XMLID_22_" gradientUnits="userSpaceOnUse" x1="28.2838" y1="28.2926" x2="40.3936" y2="40.4024">
		<stop  offset="0" style="stop-color:#FFFFFF"/>
		<stop  offset="0.5" style="stop-color:#FFFFFF;stop-opacity:0"/>
	</linearGradient>
	<path id="XMLID_2_" style="fill:url(#XMLID_22_);" d="M33.679,25.809c1.866-0.14,3.777,0.335,5.34,1.369
		c1.649,1.07,2.909,2.728,3.491,4.607c0.625,1.978,0.5,4.185-0.359,6.074c-0.775,1.732-2.145,3.188-3.825,4.068
		c-1.482,0.789-3.203,1.113-4.872,0.937c-1.987-0.194-3.889-1.124-5.27-2.564c-1.346-1.38-2.2-3.231-2.369-5.152
		c-0.185-1.932,0.307-3.923,1.39-5.535C28.63,27.442,31.086,25.991,33.679,25.809z"/>
</g>
<g id="XMLID_1_">
	<circle id="XMLID_5_" style="fill:#FFFFFF;" cx="74.688" cy="74.664" r="14.183"/>
	<g id="XMLID_3_">
		<g id="XMLID_10_">
			<linearGradient id="XMLID_23_" gradientUnits="userSpaceOnUse" x1="58.8934" y1="58.8903" x2="90.458" y2="90.4549">
				<stop  offset="0" style="stop-color:#3F578D"/>
				<stop  offset="1" style="stop-color:#009DD1"/>
			</linearGradient>
			<path id="XMLID_11_" style="fill:url(#XMLID_23_);" d="M57.306,62.34c-0.448-0.613-0.36-1.539,0.196-2.057
				c0.981-0.969,1.964-1.934,2.948-2.899c0.508-0.531,1.408-0.62,2.008-0.194c1.147,0.823,2.29,1.653,3.436,2.477
				c1.434-0.841,2.992-1.464,4.602-1.874c0.224-1.279,0.452-2.556,0.676-3.835c0.055-0.51,0.266-1.028,0.71-1.321
				c0.334-0.25,0.761-0.317,1.169-0.29c1.315,0.013,2.63,0.021,3.944,0.032c0.742,0.013,1.427,0.606,1.523,1.346
				c0.21,1.378,0.445,2.753,0.646,4.132c1.567,0.445,3.088,1.065,4.484,1.909c1.153-0.808,2.311-1.61,3.465-2.42
				c0.581-0.409,1.44-0.35,1.943,0.157c0.993,0.999,1.978,2.007,2.965,3.013c0.532,0.506,0.643,1.393,0.225,2.001
				c-0.827,1.165-1.686,2.308-2.511,3.474c0.803,1.402,1.419,2.916,1.805,4.485c1.405,0.263,2.814,0.497,4.219,0.755
				c0.713,0.152,1.257,0.847,1.239,1.576c-0.013,1.388-0.023,2.776-0.038,4.164c-0.001,0.77-0.636,1.461-1.399,1.543
				c-1.357,0.203-2.709,0.443-4.069,0.632c-0.458,1.565-1.073,3.09-1.915,4.488c0.799,1.152,1.609,2.298,2.405,3.454
				c0.434,0.605,0.353,1.507-0.184,2.024c-1.007,0.995-2.013,1.991-3.031,2.976c-0.525,0.497-1.397,0.544-1.978,0.12
				c-1.134-0.83-2.275-1.65-3.407-2.482c-1.373,0.794-2.856,1.397-4.392,1.794c-0.243,1.381-0.492,2.763-0.739,4.145
				c-0.085,0.568-0.512,1.058-1.053,1.242c-0.35,0.126-0.728,0.084-1.093,0.083c-1.168-0.008-2.335-0.02-3.503-0.03
				c-0.564,0.027-1.127-0.269-1.42-0.752c-0.228-0.351-0.241-0.782-0.315-1.182c-0.182-1.171-0.382-2.34-0.54-3.514
				c-1.566-0.444-3.097-1.039-4.496-1.881c-1.155,0.804-2.308,1.611-3.467,2.41c-0.609,0.454-1.543,0.368-2.06-0.189
				c-0.969-0.985-1.939-1.969-2.906-2.957c-0.489-0.482-0.61-1.295-0.258-1.888c0.824-1.197,1.696-2.361,2.54-3.545
				c-0.831-1.398-1.437-2.921-1.855-4.49c-1.405-0.253-2.811-0.497-4.215-0.756c-0.71-0.135-1.259-0.82-1.252-1.54
				c0.007-1.39,0.021-2.779,0.034-4.169c-0.011-0.733,0.554-1.428,1.28-1.549c1.394-0.233,2.794-0.435,4.188-0.671
				c0.411-1.564,1.027-3.08,1.859-4.469C58.92,64.655,58.105,63.503,57.306,62.34z M64.765,66.472
				c-0.93,1.125-1.669,2.408-2.168,3.78c-1.008,2.757-1.032,5.855-0.07,8.628c0.857,2.492,2.512,4.695,4.65,6.234
				c2.276,1.645,5.105,2.503,7.912,2.408c2.73-0.076,5.428-1.054,7.565-2.757c2.348-1.839,4.015-4.52,4.624-7.44
				c0.673-3.149,0.108-6.545-1.568-9.297c-1.38-2.297-3.495-4.148-5.964-5.195c-2.766-1.194-5.959-1.362-8.836-0.47
				C68.514,63.087,66.359,64.547,64.765,66.472z"/>
		</g>
		<linearGradient id="XMLID_24_" gradientUnits="userSpaceOnUse" x1="68.4217" y1="68.402" x2="80.9462" y2="80.9266">
			<stop  offset="0" style="stop-color:#3F578D"/>
			<stop  offset="1" style="stop-color:#009DD1"/>
		</linearGradient>
		<path id="XMLID_9_" style="fill:url(#XMLID_24_);" d="M68.006,68.846c1.274-1.456,3.028-2.492,4.931-2.863
			c1.992-0.406,4.123-0.098,5.915,0.866c1.895,1.006,3.403,2.724,4.14,4.739c0.684,1.839,0.73,3.906,0.129,5.774
			c-0.52,1.657-1.555,3.143-2.913,4.224c-1.606,1.298-3.683,1.991-5.746,1.931c-1.993-0.042-3.965-0.788-5.483-2.081
			c-1.537-1.29-2.619-3.116-2.989-5.09C65.467,73.712,66.226,70.861,68.006,68.846z"/>
	</g>
	
		<linearGradient id="XMLID_25_" gradientUnits="userSpaceOnUse" x1="74.3901" y1="68.1402" x2="78.4952" y2="78.0813" gradientTransform="matrix(0.9235 -0.3837 0.3837 0.9235 -23.9637 36.4842)">
		<stop  offset="0" style="stop-color:#FFFFFF"/>
		<stop  offset="0.5" style="stop-color:#FFFFFF;stop-opacity:0"/>
	</linearGradient>
	<path id="XMLID_7_" style="fill:url(#XMLID_25_);" d="M72.239,69.877c1.048-0.531,2.271-0.716,3.426-0.493
		c1.214,0.223,2.344,0.881,3.134,1.83c0.839,0.996,1.298,2.306,1.255,3.608c-0.032,1.191-0.475,2.365-1.238,3.28
		c-0.669,0.815-1.589,1.417-2.599,1.717c-1.199,0.366-2.526,0.285-3.674-0.217c-1.113-0.476-2.054-1.343-2.615-2.416
		c-0.573-1.076-0.767-2.349-0.528-3.544C69.706,72.04,70.78,70.607,72.239,69.877z"/>
</g>
</svg>
