<?xml version="1.0" encoding="iso-8859-1"?>

<svg version="1.1" id="Capa_1" xmlns="http://www.w3.org/2000/svg" xmlns:xlink="http://www.w3.org/1999/xlink" x="0px" y="0px"
	 viewBox="0 0 97 97" style="enable-background:new 0 0 97 97;" xml:space="preserve">
<g id="XMLID_9_">
	<path id="XMLID_11_" style="fill:#3F578D;" d="M97,97V82.875c-2.021,0-4.041,0-6.063,0c-0.002,2.021,0.002,6.041,0,8.063
		c-4.043,0-8.084,0-12.125,0c-0.002-2.021,0.002-6.041,0-8.063c-2.021,0-4.041,0-6.063,0c-0.002,2.021,0.002,6.041,0,8.063
		c-4.041,0-8.084,0-12.125,0c-0.002-2.021,0.002-6.041,0-8.063c-2.021,0-4.041,0-6.063,0c-0.002,2.021,0.002,6.041,0,8.063
		c-4.041,0-8.082,0-12.125,0c-0.002-2.021,0.002-6.041,0-8.063c-2.021,0-4.041,0-6.063,0c-0.002,2.021,0.002,6.041,0,8.063
		c-4.041,0-8.082,0-12.125,0c-0.002-2.021,0.002-6.041,0-8.063c-2.021,0-4.041,0-6.063,0c-0.002,2.021,0.002,6.041,0,8.063
		c-4.041,0-8.084,0-12.125,0c0-30.313,0-60.625,0-90.938L0,0l0,97H97z"/>
</g>
<g id="XMLID_2_">
	<path id="XMLID_8_" style="fill:#3F578D;" d="M48.92,27.54c2.479,0,4.5-2.01,4.5-4.5c0-2.48-2.021-4.5-4.5-4.5
		c-2.49,0-4.5,2.02-4.5,4.5C44.42,25.53,46.43,27.54,48.92,27.54z"/>
	<path id="XMLID_13_" style="fill:#3F578D;" d="M48.92,63.54c-2.49,0-4.5,2.02-4.5,4.5c0,2.49,2.01,4.5,4.5,4.5
		c2.479,0,4.5-2.01,4.5-4.5C53.42,65.56,51.399,63.54,48.92,63.54z"/>
	<path id="XMLID_14_" style="fill:#3F578D;" d="M48.92,33.54c-2.49,0-4.5,2.02-4.5,4.5c0,2.49,2.01,4.5,4.5,4.5
		c2.479,0,4.5-2.01,4.5-4.5C53.42,35.56,51.399,33.54,48.92,33.54z"/>
	<path id="XMLID_15_" style="fill:#3F578D;" d="M48.92,48.54c-2.49,0-4.5,2.02-4.5,4.5c0,2.49,2.01,4.5,4.5,4.5
		c2.479,0,4.5-2.01,4.5-4.5C53.42,50.56,51.399,48.54,48.92,48.54z"/>
</g>
<path id="XMLID_4_" style="fill:#00A3D3;" d="M88.581,77.463c-0.806,0-1.616-0.276-2.275-0.843
	c-9.942-8.521-13.227-23.199-16.402-37.394C65.436,19.255,61.781,7.129,48.75,7.129c-12.641,0-15.9,12.588-19.768,33.32
	c-2.528,13.553-5.142,27.567-13.212,35.942c-1.341,1.392-3.558,1.433-4.949,0.092c-1.392-1.342-1.433-3.558-0.092-4.949
	c6.615-6.864,9.033-19.83,11.372-32.368c3.58-19.192,7.281-39.037,26.649-39.037c19.579,0,23.853,19.099,27.984,37.569
	c2.927,13.077,5.952,26.601,14.126,33.607c1.468,1.258,1.638,3.468,0.38,4.935C90.548,77.048,89.567,77.463,88.581,77.463z"/>
</svg>
