<?xml version="1.0" encoding="iso-8859-1"?>

<svg version="1.1" id="Capa_1" xmlns="http://www.w3.org/2000/svg" xmlns:xlink="http://www.w3.org/1999/xlink" x="0px" y="0px"
	 viewBox="-372 644 97 97" style="enable-background:new -372 644 97 97;" xml:space="preserve">
<path id="XMLID_19_" style="fill:#FFFFFF;" d="M-315.206,662.959l-50.387,50.387c-4.981,4.981-3.376,14.663,1.613,19.651
	c4.989,4.989,14.67,6.594,19.651,1.613l50.387-50.387L-315.206,662.959z"/>
<linearGradient id="XMLID_7_" gradientUnits="userSpaceOnUse" x1="-350.704" y1="703.1822" x2="-334.2028" y2="719.6834">
	<stop  offset="0" style="stop-color:#3F578D"/>
	<stop  offset="1" style="stop-color:#009DD1"/>
</linearGradient>
<path id="XMLID_16_" style="fill:url(#XMLID_7_);" d="M-347.976,700.454l-15.454,15.467c-1.478,1.48-2.146,3.973-1.832,6.841
	c0.331,3.019,1.676,5.97,3.598,7.893c1.922,1.924,4.871,3.271,7.888,3.601c2.862,0.317,5.356-0.353,6.835-1.834L-315,700.454
	H-347.976z"/>
<linearGradient id="XMLID_12_" gradientUnits="userSpaceOnUse" x1="-334.146" y1="719.6691" x2="-350.6472" y2="703.1678">
	<stop  offset="0" style="stop-color:#FFFFFF"/>
	<stop  offset="0.5" style="stop-color:#FFFFFF;stop-opacity:0"/>
</linearGradient>
<path id="XMLID_15_" style="fill:url(#XMLID_12_);" d="M-347.934,700.454l-15.425,15.438c-1.478,1.48-2.146,3.973-1.832,6.841
	c0.331,3.019,1.676,5.97,3.598,7.893c1.922,1.924,4.871,3.271,7.888,3.601c2.862,0.317,5.356-0.353,6.835-1.834l31.912-31.939
	H-347.934z"/>
<linearGradient id="XMLID_13_" gradientUnits="userSpaceOnUse" x1="-342.8167" y1="655.4213" x2="-304.8983" y2="655.4213" gradientTransform="matrix(0.7071 0.7071 -0.7071 0.7071 394.5741 432.4138)">
	<stop  offset="0" style="stop-color:#3F578D"/>
	<stop  offset="1" style="stop-color:#009DD1"/>
</linearGradient>
<path id="XMLID_42_" style="fill:url(#XMLID_13_);" d="M-291.814,684.782l-23.984-23.984c-0.778-0.778-0.778-2.051,0-2.828
	l9.022-9.021c0.778-0.778,2.051-0.778,2.828,0l23.984,23.984c0.778,0.778,0.778,2.051,0,2.828l-9.022,9.021
	C-289.763,685.56-291.036,685.56-291.814,684.782z"/>
<linearGradient id="XMLID_14_" gradientUnits="userSpaceOnUse" x1="-344.1278" y1="680.0992" x2="-311.1151" y2="713.112">
	<stop  offset="0" style="stop-color:#3F578D"/>
	<stop  offset="1" style="stop-color:#009DD1"/>
</linearGradient>
<path id="XMLID_6_" style="fill:url(#XMLID_14_);" d="M-276.868,669.828l-23.976-23.976c-1.206-1.205-2.81-1.868-4.518-1.868
	c-1.709,0-3.314,0.664-4.518,1.869l-9.016,9.014c-2.139,2.14-2.434,5.431-0.897,7.897l-48.192,48.193
	c-3.025,3.026-4.447,7.612-3.901,12.583c0.496,4.522,2.506,8.841,5.515,11.85s7.329,5.019,11.849,5.514
	c4.996,0.549,9.575-0.892,12.583-3.901l48.2-48.201c1.021,0.626,2.178,0.945,3.338,0.945c1.637,0,3.274-0.622,4.52-1.868
	l9.014-9.014C-274.378,676.373-274.378,672.32-276.868,669.828z M-346.719,732.219c-1.322,1.322-3.356,2.038-5.707,2.038
	c-0.442,0-0.895-0.026-1.358-0.077c-2.974-0.325-5.893-1.662-7.806-3.575c-1.912-1.912-3.248-4.83-3.575-7.805
	c-0.32-2.922,0.395-5.496,1.962-7.063l47.997-47.997l16.484,16.483L-346.719,732.219z M-290.4,679.996l-20.612-20.612l5.651-5.65
	l20.612,20.612L-290.4,679.996z"/>
<g id="XMLID_1_" style="opacity:0.2;">
	<path id="XMLID_2_" style="fill:#FFFFFF;" d="M-303.064,649.047c-0.706-0.706-1.849-0.706-2.555,0l-10.08,10.079
		c-0.706,0.706-0.706,1.85,0,2.556c0.353,0.353,0.815,0.529,1.278,0.529c0.462,0,0.925-0.177,1.278-0.529l10.08-10.079
		C-302.358,650.897-302.358,649.752-303.064,649.047z"/>
	<path id="XMLID_8_" style="fill:#FFFFFF;" d="M-297.313,654.797c-0.706-0.706-1.85-0.706-2.555,0l-10.08,10.079
		c-0.706,0.705-0.706,1.85,0,2.555c0.353,0.353,0.815,0.529,1.278,0.529c0.462,0,0.925-0.176,1.278-0.529l10.08-10.079
		C-296.607,656.647-296.607,655.503-297.313,654.797z"/>
	<path id="XMLID_9_" style="fill:#FFFFFF;" d="M-291.564,660.548c-0.706-0.706-1.85-0.706-2.556,0l-10.079,10.079
		c-0.706,0.706-0.706,1.85,0,2.556c0.353,0.353,0.815,0.529,1.278,0.529c0.462,0,0.925-0.177,1.278-0.529l10.079-10.079
		C-290.858,662.398-290.858,661.253-291.564,660.548z"/>
	<path id="XMLID_10_" style="fill:#FFFFFF;" d="M-285.813,666.298c-0.706-0.706-1.849-0.706-2.555,0l-10.079,10.08
		c-0.706,0.705-0.706,1.85,0,2.555c0.353,0.353,0.815,0.529,1.278,0.529s0.925-0.176,1.278-0.529l10.079-10.08
		C-285.107,668.148-285.107,667.003-285.813,666.298z"/>
	<path id="XMLID_11_" style="fill:#FFFFFF;" d="M-280.062,672.049c-0.706-0.706-1.85-0.706-2.556,0l-10.08,10.079
		c-0.706,0.706-0.706,1.85,0,2.555c0.353,0.353,0.815,0.529,1.278,0.529c0.462,0,0.925-0.176,1.278-0.529l10.08-10.079
		C-279.356,673.899-279.356,672.754-280.062,672.049z"/>
</g>
</svg>
