<?xml version="1.0" encoding="iso-8859-1"?>

<svg version="1.1" id="Capa_1" xmlns="http://www.w3.org/2000/svg" xmlns:xlink="http://www.w3.org/1999/xlink" x="0px" y="0px"
	 viewBox="0 0 97 97" style="enable-background:new 0 0 97 97;" xml:space="preserve">
<path id="XMLID_40_" style="fill:#FFFFFF;" d="M86.395,67.25H10.5c-2.75,0-5-2.25-5-5V11c0-2.75,2.25-5,5-5h75.895
	c2.75,0,5,2.25,5,5v51.25C91.395,65,89.145,67.25,86.395,67.25z"/>
<linearGradient id="XMLID_2_" gradientUnits="userSpaceOnUse" x1="34.6632" y1="77.3544" x2="64.7421" y2="107.4333">
	<stop  offset="0" style="stop-color:#3F578D"/>
	<stop  offset="1" style="stop-color:#009DD1"/>
</linearGradient>
<path id="XMLID_50_" style="fill:url(#XMLID_2_);" d="M75.151,90.39L54.309,79.703V68.481c0-0.931-0.37-1.822-1.029-2.479
	c-0.656-0.653-1.545-1.021-2.471-1.021c-0.004,0-0.008,0-0.012,0l-2.331,0.008c-1.928,0.007-3.487,1.57-3.488,3.498l-0.006,11.225
	L24.194,90.391c-1.437,0.739-2.182,2.365-1.802,3.937c0.38,1.57,1.786,2.677,3.402,2.677h47.761c1.616,0,3.365-1.063,3.402-2.679
	C76.998,92.532,74.785,89.943,75.151,90.39z"/>
<linearGradient id="XMLID_3_" gradientUnits="userSpaceOnUse" x1="9.0225" y1="-3.3044" x2="88.0121" y2="75.6852">
	<stop  offset="0" style="stop-color:#3F578D"/>
	<stop  offset="1" style="stop-color:#009DD1"/>
</linearGradient>
<path id="XMLID_41_" style="fill:url(#XMLID_3_);" d="M87.375,72.358H9.66c-5.285,0-9.584-4.299-9.584-9.584V9.606
	c0-5.285,4.3-9.584,9.584-9.584h77.715c5.285,0,9.584,4.3,9.584,9.584v53.168C96.959,68.06,92.66,72.358,87.375,72.358z M9.66,9.19
	c-0.218,0-0.416,0.198-0.416,0.416v53.168c0,0.218,0.198,0.416,0.416,0.416h77.715c0.218,0,0.416-0.198,0.416-0.416V9.606
	c0-0.218-0.198-0.416-0.416-0.416H9.66z"/>
<g id="XMLID_67_">
	<rect id="XMLID_72_" x="18.793" y="21.385" style="fill:#3F578D;" width="7" height="6"/>
	<rect id="XMLID_70_" x="18.793" y="33.204" style="fill:#3F578D;" width="7" height="6.983"/>
	<rect id="XMLID_74_" x="18.793" y="46.005" style="fill:#3F578D;" width="7" height="6"/>
</g>
<g id="XMLID_53_">
	<path id="XMLID_54_" style="fill:#009DD1;" d="M59.836,13.787c4.83,0.016,9.624,1.951,13.033,5.384
		c3.461,3.397,5.42,8.199,5.444,13.041c-6.159,0.004-12.318,0-18.477,0C59.836,26.073,59.836,19.93,59.836,13.787z"/>
</g>
<g id="XMLID_51_">
	<path id="XMLID_52_" style="fill:#3F578D;" d="M35.888,30.856c2.76-7.371,10.322-12.491,18.177-12.449
		c0.03,6.441,0.008,12.878,0.013,19.319c4.607,4.641,9.269,9.226,13.88,13.859c-3.622,3.609-8.645,5.779-13.769,5.766
		c-6.271,0.098-12.453-3.087-16.041-8.22C34.39,43.925,33.532,36.818,35.888,30.856z"/>
</g>
<g id="XMLID_44_">
	<path id="XMLID_46_" style="fill:#009DD1;" d="M61.802,37.441c6.207,0.012,12.418-0.032,18.629,0.02
		c-0.052,4.874-2.028,9.672-5.504,13.105C70.546,46.193,66.174,41.813,61.802,37.441z"/>
</g>
<linearGradient id="XMLID_4_" gradientUnits="userSpaceOnUse" x1="75.1514" y1="85.0539" x2="24.1544" y2="85.0539">
	<stop  offset="0" style="stop-color:#FFFFFF"/>
	<stop  offset="0.4" style="stop-color:#FFFFFF;stop-opacity:0"/>
</linearGradient>
<polygon id="XMLID_31_" style="fill:url(#XMLID_4_);" points="44.972,79.712 54.309,79.703 75.151,90.39 24.154,90.405 "/>
</svg>
