<?xml version="1.0" encoding="iso-8859-1"?>
<!DOCTYPE svg PUBLIC "-//W3C//DTD SVG 1.1//EN" "http://www.w3.org/Graphics/SVG/1.1/DTD/svg11.dtd">
<svg version="1.1" id="Capa_1" xmlns="http://www.w3.org/2000/svg" xmlns:xlink="http://www.w3.org/1999/xlink" x="0px" y="0px"
	 width="97px" height="97px" viewBox="0 0 97 97" style="enable-background:new 0 0 97 97;" xml:space="preserve">
<g>
	<g>
		
			<linearGradient id="SVGID_1_" gradientUnits="userSpaceOnUse" x1="31.1436" y1="63.584" x2="96.085" y2="63.584" gradientTransform="matrix(1 0.009 -0.009 1 0.5596 -0.5537)">
			<stop  offset="0" style="stop-color:#046973"/>
			<stop  offset="0.6684" style="stop-color:#34A6AE"/>
		</linearGradient>
		
			<path style="fill:url(#SVGID_1_);stroke:#08828B;stroke-width:2;stroke-linecap:round;stroke-linejoin:round;stroke-miterlimit:22.9256;" d="
			M61.092,31.105l5.586,0.05c0.673,2.726,1.244,5.481,1.746,8.245c3.249,0.762,6.376,2.054,9.138,3.947
			c2.451-1.45,4.774-3.111,7.271-4.484c1.309,1.367,2.607,2.738,3.91,4.11c-1.604,2.305-3.055,4.71-4.609,7.051
			c1.764,2.786,3.114,5.871,3.681,9.137c2.767,0.624,5.522,1.302,8.281,1.948l-0.051,5.672c-2.766,0.546-5.52,1.145-8.27,1.751
			c-0.691,3.235-2.003,6.315-3.848,9.062c1.395,2.459,3.03,4.771,4.403,7.236c-1.367,1.313-2.673,2.69-4.092,3.947
			c-2.277-1.628-4.688-3.046-7.004-4.618c-2.758,1.845-5.891,3.046-9.137,3.724c-0.729,2.718-1.255,5.485-1.963,8.212l-5.632-0.051
			c-0.65-2.729-1.22-5.479-1.752-8.235c-3.256-0.715-6.387-1.979-9.129-3.881c-2.326,1.466-4.667,2.915-7.007,4.355
			c-1.574-0.925-2.717-2.663-4.123-3.909c1.442-2.42,3.06-4.727,4.566-7.102c-1.827-2.794-3.055-5.922-3.727-9.184
			c-2.746-0.618-5.476-1.296-8.227-1.891l0.052-5.666c2.765-0.643,5.554-1.157,8.32-1.812c0.604-3.263,2.041-6.309,3.843-9.068
			c-1.549-2.355-2.96-4.794-4.478-7.167c1.35-1.309,2.647-2.67,3.976-4.005c2.46,1.443,4.767,3.124,7.185,4.628
			c2.758-1.831,5.877-3.063,9.104-3.771C59.819,36.608,60.361,33.835,61.092,31.105z M60.303,45.384
			c-8.285,1.36-14.942,8.956-15.221,17.342c-0.256,4.986,1.609,10.046,5.05,13.662c3.787,4.002,9.409,6.226,14.916,5.731
			c5.565-0.391,10.865-3.495,13.942-8.14c2.727-4.059,3.8-9.235,2.769-14.027c-0.971-4.934-4.076-9.429-8.376-12.049
			C69.554,45.455,64.772,44.576,60.303,45.384z"/>
	</g>
	
		<linearGradient id="SVGID_2_" gradientUnits="userSpaceOnUse" x1="57.5293" y1="63.6113" x2="69.7051" y2="63.6113" gradientTransform="matrix(1 0.009 -0.009 1 0.5596 -0.5537)">
		<stop  offset="0" style="stop-color:#046973"/>
		<stop  offset="0.6684" style="stop-color:#34A6AE"/>
	</linearGradient>
	
		<path style="fill:url(#SVGID_2_);stroke:#08828B;stroke-width:2;stroke-linecap:round;stroke-linejoin:round;stroke-miterlimit:22.9256;" d="
		M61.422,57.945c3.252-1.349,7.259,0.772,8.052,4.17c1.072,3.576-1.968,7.685-5.728,7.586c-3.581,0.257-6.669-3.286-6.18-6.785
		C57.813,60.709,59.386,58.767,61.422,57.945z"/>
</g>
<g>
	<g>
		<linearGradient id="SVGID_3_" gradientUnits="userSpaceOnUse" x1="0.9619" y1="23.3999" x2="45.8379" y2="23.3999">
			<stop  offset="0" style="stop-color:#046973"/>
			<stop  offset="0.75" style="stop-color:#34A6AE"/>
		</linearGradient>
		
			<path style="fill:url(#SVGID_3_);stroke:#08828B;stroke-width:2;stroke-linecap:round;stroke-linejoin:round;stroke-miterlimit:22.9256;" d="
			M12.09,2.447l3.661-1.485C17,2.595,18.193,4.273,19.342,5.976c2.345-0.375,4.769-0.364,7.131,0.149
			c1.168-1.633,2.191-3.37,3.41-4.962c1.26,0.556,2.515,1.115,3.775,1.674c-0.364,1.972-0.591,3.966-0.914,5.946
			c1.982,1.376,3.777,3.063,5.119,5.082c1.992-0.337,3.989-0.632,5.983-0.95l1.652,3.788c-1.639,1.114-3.259,2.262-4.874,3.413
			c0.512,2.341,0.574,4.747,0.185,7.078c1.642,1.256,3.396,2.351,5.027,3.62c-0.504,1.246-0.945,2.518-1.498,3.738
			c-1.969-0.464-3.968-0.752-5.943-1.17c-1.25,1.977-2.937,3.627-4.851,4.958c0.331,2.008,0.813,3.994,1.162,6.001l-3.69,1.496
			c-1.237-1.64-2.425-3.317-3.592-5.007c-2.337,0.409-4.755,0.416-7.11-0.106c-1.08,1.61-2.175,3.21-3.275,4.805
			c-1.3-0.189-2.564-1.036-3.852-1.482c0.224-2.002,0.59-3.978,0.868-5.969c-2.023-1.362-3.756-3.113-5.162-5.1
			c-1.977,0.333-3.958,0.624-5.929,0.972l-1.651-3.786c1.613-1.178,3.278-2.279,4.887-3.466c-0.575-2.334-0.545-4.752-0.19-7.078
			c-1.71-1.147-3.354-2.39-5.052-3.556c0.492-1.238,0.936-2.497,1.402-3.748c2.035,0.294,4.04,0.787,6.065,1.131
			c1.254-1.968,2.922-3.635,4.815-4.982C12.898,6.455,12.429,4.462,12.09,2.447z M15.824,12.167
			c-4.999,3.156-7.085,10.02-4.773,15.679c1.319,3.39,4.039,6.25,7.358,7.724c3.661,1.635,7.99,1.59,11.434-0.235
			c3.513-1.772,6.047-5.277,6.673-9.206c0.569-3.443-0.268-7.181-2.365-10.089c-2.102-3.022-5.461-5.171-9.047-5.748
			C21.878,9.703,18.499,10.414,15.824,12.167z"/>
	</g>
	<linearGradient id="SVGID_4_" gradientUnits="userSpaceOnUse" x1="19.0513" y1="23.4355" x2="27.7412" y2="23.4355">
		<stop  offset="0" style="stop-color:#046973"/>
		<stop  offset="0.75" style="stop-color:#34A6AE"/>
	</linearGradient>
	
		<path style="fill:url(#SVGID_4_);stroke:#08828B;stroke-width:2;stroke-linecap:round;stroke-linejoin:round;stroke-miterlimit:22.9256;" d="
		M20.291,20.225c1.717-1.781,4.962-1.458,6.488,0.589c1.764,2.091,1.005,5.649-1.48,6.605c-2.257,1.145-5.325-0.376-6.046-2.837
		C18.757,23.046,19.205,21.325,20.291,20.225z"/>
</g>
</svg>
