<?xml version="1.0" encoding="iso-8859-1"?>

<svg version="1.1" id="Capa_1" xmlns="http://www.w3.org/2000/svg" xmlns:xlink="http://www.w3.org/1999/xlink" x="0px" y="0px"
	 viewBox="0 0 97 97" style="enable-background:new 0 0 97 97;" xml:space="preserve">
<polygon id="XMLID_205_" style="fill:#FFFFFF;" points="69.798,4.726 69.16,93.862 5.765,94.287 3.638,22.809 22.784,3.237 "/>
<linearGradient id="XMLID_2_" gradientUnits="userSpaceOnUse" x1="52.7274" y1="54.0975" x2="88.9141" y2="90.2842">
	<stop  offset="0" style="stop-color:#3F578D"/>
	<stop  offset="1" style="stop-color:#009DD1"/>
</linearGradient>
<path id="XMLID_14_" style="fill:url(#XMLID_2_);" d="M70.82,47.215c-14.451,0-26.208,11.204-26.208,24.976
	c0,13.772,11.757,24.977,26.208,24.977c14.452,0,26.209-11.204,26.209-24.977C97.029,58.419,85.272,47.215,70.82,47.215z"/>
<g id="XMLID_9_">
	<path id="XMLID_16_" style="fill:#FFFFFF;" d="M65.68,69.21l0.445,0.247c0.675,0.375,1.346,0.759,2.017,1.142
		c0.465-0.531,0.928-1.061,1.38-1.602c-0.174-0.227-0.357-0.453-0.547-0.687c-0.197-0.244-0.396-0.487-0.586-0.735l-0.074-0.096
		c-0.407-0.474-0.51-0.95-0.309-1.416c0.231-0.668,0.359-1.353,0.383-2.035c-0.007-0.283,0.086-0.722,0.635-1.054l0.103-0.066
		c0.374-0.21,0.744-0.428,1.114-0.646c0.204-0.121,0.409-0.241,0.614-0.36c-0.226-0.667-0.458-1.331-0.695-1.995
		c-0.487,0.068-0.975,0.138-1.462,0.208l-1.36,0.195l-0.341-0.406c-0.549-0.655-1.157-1.177-1.808-1.551l-0.457-0.263l-0.021-0.527
		c-0.027-0.693-0.029-1.389-0.031-2.083c0-0.093-0.001-0.185-0.001-0.278c-0.243-0.046-0.485-0.093-0.727-0.141
		c-0.461-0.091-0.906-0.178-1.347-0.253c-0.144,0.367-0.29,0.733-0.437,1.098l-0.325,0.815c-0.142,0.488-0.525,0.788-1.138,0.892
		l-0.15,0.031c-0.504,0.084-1.008,0.313-1.542,0.556l-0.762,0.34l-0.397-0.192c-0.475-0.229-0.931-0.494-1.387-0.761
		c-0.225-0.132-0.451-0.263-0.68-0.39c-0.236,0.281-0.478,0.558-0.72,0.835c-0.221,0.254-0.442,0.508-0.66,0.765
		c0.169,0.215,0.34,0.43,0.509,0.644c0.287,0.361,0.573,0.722,0.855,1.088c0.262,0.287,0.326,0.716,0.146,1.22l-0.036,0.118
		c-0.211,0.586-0.324,1.261-0.345,2.064l-0.014,0.527l-1.713,1.007c-0.245,0.143-0.491,0.288-0.736,0.432
		c0.228,0.667,0.459,1.333,0.697,1.996c0.085-0.013,0.169-0.025,0.253-0.038c0.693-0.105,1.386-0.209,2.082-0.278l0.478-0.047
		l0.323,0.356c0.663,0.732,1.249,1.233,1.845,1.576l0.467,0.269l0.01,0.539c0.008,0.465,0.011,0.929,0.013,1.395
		c0.002,0.312,0.003,0.624,0.007,0.936c0.314,0.059,0.627,0.12,0.94,0.182c0.377,0.075,0.755,0.15,1.134,0.218
		c0.06-0.151,0.119-0.303,0.179-0.454c0.219-0.556,0.438-1.112,0.67-1.662l0.12-0.286l0.265-0.16c0.27-0.163,0.535-0.22,0.729-0.261
		l0.132-0.031c0.657-0.142,1.253-0.421,1.807-0.704L65.68,69.21z M64.021,67.332C63.414,67.707,62.7,67.9,61.975,67.9
		c-0.483,0-0.971-0.086-1.435-0.261c-1.648-0.599-2.744-2.365-2.552-4.114c0.07-1.086,0.638-2.109,1.559-2.81
		c0.942-0.715,2.107-0.988,3.195-0.749c1.742,0.305,3.143,1.899,3.221,3.699C66.076,65.098,65.295,66.585,64.021,67.332z"/>
	<path id="XMLID_30_" style="fill:#FFFFFF;" d="M86.901,80.204l-1.238-0.735l-0.006-0.537c-0.01-1.029-0.164-1.956-0.458-2.756
		l-0.03-0.097c-0.222-0.622-0.154-1.101,0.188-1.465l1.873-2.376l-0.634-0.738c-0.493-0.577-0.988-1.154-1.487-1.728
		c-0.368,0.21-0.736,0.42-1.104,0.629c-0.465,0.264-0.931,0.528-1.395,0.796l-0.122,0.063c-0.514,0.279-0.976,0.289-1.375,0.023
		c-0.923-0.49-1.883-0.815-2.858-0.966l-0.539-0.084l-0.861-2.167c-0.185-0.461-0.37-0.922-0.552-1.383l-0.466,0.086
		c-0.9,0.162-1.824,0.33-2.732,0.519c0.001,0.464-0.003,0.926-0.007,1.39c-0.004,0.479-0.007,0.957-0.006,1.435l-0.002,0.115
		c0,0.631-0.235,1.064-0.695,1.287c-0.843,0.519-1.594,1.183-2.23,1.972l-0.334,0.416l-0.53-0.068
		c-0.648-0.084-1.295-0.18-1.942-0.276c-0.445-0.066-0.89-0.132-1.336-0.194c-0.158,0.46-0.329,0.942-0.499,1.423
		c-0.195,0.549-0.389,1.098-0.577,1.647l2.688,1.572c0.283,0.148,0.597,0.455,0.618,1.092l0.013,0.075l-0.004,0.058
		c0.011,0.872,0.204,1.813,0.589,2.877l0.177,0.489l-0.315,0.413c-0.523,0.687-1.06,1.364-1.597,2.041l-0.442,0.558
		c0.227,0.264,0.454,0.527,0.681,0.79c0.482,0.558,0.964,1.114,1.438,1.678c0.348-0.193,0.694-0.392,1.038-0.592
		c0.613-0.354,1.224-0.707,1.853-1.025l0.38-0.192l0.396,0.154c0.234,0.09,0.459,0.201,0.683,0.313
		c0.195,0.097,0.387,0.195,0.593,0.268c0.476,0.198,0.945,0.313,1.442,0.434c0.181,0.045,0.361,0.088,0.541,0.136l0.427,0.113
		l0.19,0.399c0.34,0.711,0.623,1.444,0.897,2.151c0.121,0.312,0.242,0.624,0.367,0.933c0.541-0.106,1.084-0.206,1.625-0.305
		c0.526-0.096,1.052-0.193,1.576-0.295c0.005-0.452,0.007-0.905,0.007-1.357c0.002-0.65,0.004-1.3,0.016-1.949l0.01-0.544
		l0.473-0.268c0.837-0.475,1.6-1.112,2.268-1.893l0.11-0.109c0.408-0.456,0.847-0.475,1.125-0.413
		c0.52,0.068,1.038,0.146,1.556,0.225c0.505,0.077,1.008,0.154,1.514,0.22c0.247-0.697,0.492-1.396,0.736-2.095l0.342-0.975
		C88.269,81.018,87.585,80.61,86.901,80.204z M81.687,80.375c-0.533,1.732-2.001,3.058-3.744,3.396
		c-0.333,0.077-0.672,0.114-1.008,0.114c-1.94,0-3.832-1.221-4.556-3.085c-0.88-1.992-0.195-4.515,1.607-5.833
		c1.072-0.815,2.53-1.152,3.905-0.906c1.642,0.33,3.028,1.471,3.636,2.982C81.96,78.014,82.022,79.209,81.687,80.375z"/>
</g>
<g id="XMLID_10_">
	<path id="XMLID_11_" style="fill:#3F578D;" d="M38.187,28.411h21.345c1.657,0,3-1.343,3-3s-1.343-3-3-3H38.187
		c-1.657,0-3,1.343-3,3S36.531,28.411,38.187,28.411z"/>
	<path id="XMLID_28_" style="fill:#3F578D;" d="M59.532,37.282H27c-1.452,0-2.629,1.177-2.629,2.629s1.177,2.629,2.629,2.629h32.532
		c1.452,0,2.63-1.177,2.63-2.629S60.984,37.282,59.532,37.282z"/>
	<circle id="XMLID_32_" style="fill:#3F578D;" cx="16.833" cy="39.911" r="3.833"/>
	<circle id="XMLID_33_" style="fill:#3F578D;" cx="16.833" cy="54.701" r="3.833"/>
	<circle id="XMLID_34_" style="fill:#3F578D;" cx="16.833" cy="69.634" r="3.833"/>
	<path id="XMLID_35_" style="fill:#3F578D;" d="M24.371,54.7c0,1.452,1.177,2.63,2.629,2.63h16.735
		c1.129-1.89,2.458-3.656,3.973-5.26H27C25.548,52.07,24.371,53.248,24.371,54.7z"/>
	<path id="XMLID_36_" style="fill:#3F578D;" d="M27,67.004c-1.452,0-2.629,1.178-2.629,2.63s1.177,2.63,2.629,2.63h12.614
		c0-0.025-0.002-0.049-0.002-0.073c0-1.769,0.17-3.5,0.477-5.187H27z"/>
</g>
<linearGradient id="XMLID_3_" gradientUnits="userSpaceOnUse" x1="4.4632" y1="15.963" x2="69.4124" y2="80.9122">
	<stop  offset="0" style="stop-color:#3F578D"/>
	<stop  offset="1" style="stop-color:#009DD1"/>
</linearGradient>
<path id="XMLID_12_" style="fill:url(#XMLID_3_);" d="M65.273,0H21.876c-0.929,0-1.818,0.369-2.475,1.025l-3.247,3.247L3.067,17.359
	l-2.042,2.042C0.369,20.058,0,20.948,0,21.876v66.397C0,93.085,3.915,97,8.727,97h44.598c-2.921-1.907-5.489-4.278-7.589-7H8.727
	C7.791,90,7,89.209,7,88.273V24.912h14.739c1.65,0,3-1.35,3-3V7.272c0-0.093-0.019-0.181-0.028-0.272h40.562
	C66.209,7,67,7.791,67,8.727v33.721c1.253-0.148,2.526-0.233,3.82-0.233c1.073,0,2.134,0.052,3.18,0.155V8.727
	C74,3.915,70.085,0,65.273,0z"/>
</svg>
