<?xml version="1.0" encoding="iso-8859-1"?><!DOCTYPE svg PUBLIC "-//W3C//DTD SVG 1.1//EN" "http://www.w3.org/Graphics/SVG/1.1/DTD/svg11.dtd">
<svg version="1.1" id="Capa_1" xmlns="http://www.w3.org/2000/svg" xmlns:xlink="http://www.w3.org/1999/xlink" x="0px" y="0px"
	 width="97px" height="97px" viewBox="0 0 97 97" style="enable-background:new 0 0 97 97;" xml:space="preserve">
<linearGradient id="SVGID_1_" gradientUnits="userSpaceOnUse" x1="-132.3633" y1="108.4941" x2="73.622" y2="45.5181">
	<stop  offset="0" style="stop-color:#34A6AE"/>
	<stop  offset="1" style="stop-color:#FFFFFF"/>
</linearGradient>
<path style="fill-rule:evenodd;clip-rule:evenodd;fill:url(#SVGID_1_);stroke:#08828B;stroke-width:2.0001;stroke-linecap:round;stroke-linejoin:round;stroke-miterlimit:22.9256;" d="
	M40.307,1.134h29.884c-2.129,4.129-3.329,8.812-3.329,13.777c0,0.023,0.001,0.044,0.001,0.067h-0.001v21.389h0.017l27.622,41.547
	h-0.06c1.245,1.825,1.985,4.025,2.019,6.396h0.001H96.46c0,0.056,0.001,0.11,0.001,0.163c0,6.386-5.131,11.57-11.492,11.657v0.002
	h-0.165H26.352h-0.164v-0.002c-6.363-0.087-11.494-5.271-11.494-11.657c0-0.053,0-0.107,0.001-0.163h-0.001h0.001
	c0.033-2.371,0.773-4.571,2.019-6.396h-0.173l27.076-41.44V14.978h0.019c0-0.023,0.001-0.044,0.001-0.067
	C43.637,9.946,42.435,5.264,40.307,1.134z"/>
<path style="fill-rule:evenodd;clip-rule:evenodd;fill:#5FBEC3;stroke:#08828B;stroke-width:2.0001;stroke-linecap:round;stroke-linejoin:round;stroke-miterlimit:22.9256;" d="
	M81.85,58.886l12.651,19.028h-0.06c1.245,1.825,1.985,4.025,2.019,6.396h0.001H96.46c0,0.056,0.001,0.11,0.001,0.163
	c0,6.386-5.131,11.57-11.492,11.657v0.002h-0.165H26.352h-0.164v-0.002c-6.363-0.087-11.494-5.271-11.494-11.657
	c0-0.053,0-0.107,0.001-0.163h-0.001h0.001c0.033-2.371,0.773-4.571,2.019-6.396h-0.173l12.433-19.028H81.85z"/>
<linearGradient id="SVGID_2_" gradientUnits="userSpaceOnUse" x1="31.6978" y1="77.3477" x2="85.577" y2="78.2881">
	<stop  offset="0" style="stop-color:#5BBAC2"/>
	<stop  offset="1" style="stop-color:#FFFFFF"/>
</linearGradient>
<path style="fill-rule:evenodd;clip-rule:evenodd;fill:url(#SVGID_2_);" d="M77.436,65.638l8.223,12.369h-0.04
	c0.81,1.188,1.292,2.616,1.313,4.156h0.001h-0.001c0,0.036,0.001,0.071,0.001,0.109c0,4.146-3.336,7.518-7.472,7.573v0.002h-0.106
	H31.36h-0.107v-0.002c-4.136-0.056-7.471-5.481-7.471-7.573c0-2.094,0-0.073,0.001-0.109h-0.001h0.001
	c0.022-1.54,0.503-2.969,1.313-4.156h-0.112l8.081-12.369H77.436z"/>
<path style="fill-rule:evenodd;clip-rule:evenodd;fill:none;stroke:#FFFFFF;stroke-width:6.0001;stroke-linecap:round;stroke-linejoin:round;stroke-miterlimit:22.9256;" d="
	M59.82,9.565c-1.904,2.944-1.327,4.519-1.329,8.867"/>
<line style="fill-rule:evenodd;clip-rule:evenodd;fill:none;stroke:#08828B;stroke-width:2.9999;stroke-linecap:round;stroke-linejoin:round;stroke-miterlimit:22.9256;" x1="56.789" y1="26.674" x2="44.354" y2="26.674"/>
<line style="fill-rule:evenodd;clip-rule:evenodd;fill:none;stroke:#08828B;stroke-width:2.9999;stroke-linecap:round;stroke-linejoin:round;stroke-miterlimit:22.9256;" x1="56.789" y1="36.892" x2="44.353" y2="36.892"/>
<line style="fill-rule:evenodd;clip-rule:evenodd;fill:none;stroke:#08828B;stroke-width:2.9999;stroke-linecap:round;stroke-linejoin:round;stroke-miterlimit:22.9256;" x1="49.788" y1="47.107" x2="37.354" y2="47.107"/>
<line style="fill-rule:evenodd;clip-rule:evenodd;fill:none;stroke:#FFFFFF;stroke-width:6.0001;stroke-linecap:round;stroke-linejoin:round;stroke-miterlimit:22.9256;" x1="61.836" y1="43.822" x2="67.066" y2="51.571"/>
<linearGradient id="SVGID_3_" gradientUnits="userSpaceOnUse" x1="-46.5044" y1="54.667" x2="30.1849" y2="54.667">
	<stop  offset="0" style="stop-color:#34A6AE"/>
	<stop  offset="1" style="stop-color:#FFFFFF"/>
</linearGradient>
<path style="fill-rule:evenodd;clip-rule:evenodd;fill:url(#SVGID_3_);stroke:#08828B;stroke-width:2.0001;stroke-linecap:round;stroke-linejoin:round;stroke-miterlimit:22.9256;" d="
	M1.336,19.732h30.202c-2.151,4.172-3.364,8.906-3.364,13.924c0,0.022,0,0.045,0,0.068h0v44.13v0.542h-0.013
	c-0.283,6.237-5.428,11.205-11.733,11.205c-6.307,0-11.451-4.968-11.734-11.205H4.68v-0.542v-44.13H4.7c0-0.023,0-0.045,0-0.068
	C4.7,28.638,3.487,23.904,1.336,19.732z"/>
<path style="fill-rule:evenodd;clip-rule:evenodd;fill:#F9B97A;stroke:#08828B;stroke-width:2.0001;stroke-linecap:round;stroke-linejoin:round;stroke-miterlimit:22.9256;" d="
	M28.174,39.202v38.652v0.542h-0.013c-0.283,6.237-5.428,11.205-11.733,11.205c-6.307,0-11.451-4.968-11.734-11.205H4.68v-0.542
	V39.202H28.174z"/>
<linearGradient id="SVGID_4_" gradientUnits="userSpaceOnUse" x1="6.957" y1="63.8271" x2="24.6561" y2="64.7547">
	<stop  offset="0" style="stop-color:#FABF73"/>
	<stop  offset="1" style="stop-color:#FFFFFF"/>
</linearGradient>
<path style="fill-rule:evenodd;clip-rule:evenodd;fill:url(#SVGID_4_);" d="M22.594,44.52v34.036v0.27h-0.007
	c-0.154,3.12-2.948,5.604-6.374,5.604c-3.426,0-6.22-2.484-6.374-5.604H9.833v-0.27V44.52H22.594z"/>
<path style="fill-rule:evenodd;clip-rule:evenodd;fill:none;stroke:#FFFFFF;stroke-width:6.0001;stroke-linecap:round;stroke-linejoin:round;stroke-miterlimit:22.9256;" d="
	M21.774,25.952c-1.401,2.166-0.977,3.323-0.978,6.522"/>
<line style="fill-rule:evenodd;clip-rule:evenodd;fill:none;stroke:#08828B;stroke-width:2.9999;stroke-linecap:round;stroke-linejoin:round;stroke-miterlimit:22.9256;" x1="17.579" y1="49.302" x2="5.144" y2="49.302"/>
<line style="fill-rule:evenodd;clip-rule:evenodd;fill:none;stroke:#08828B;stroke-width:2.9999;stroke-linecap:round;stroke-linejoin:round;stroke-miterlimit:22.9256;" x1="17.579" y1="59.521" x2="5.144" y2="59.521"/>
<line style="fill-rule:evenodd;clip-rule:evenodd;fill:none;stroke:#08828B;stroke-width:2.9999;stroke-linecap:round;stroke-linejoin:round;stroke-miterlimit:22.9256;" x1="17.579" y1="69.737" x2="5.145" y2="69.737"/>
</svg>
