<?xml version="1.0" encoding="iso-8859-1"?>

<svg version="1.1" id="Capa_1" xmlns="http://www.w3.org/2000/svg" xmlns:xlink="http://www.w3.org/1999/xlink" x="0px" y="0px"
	 viewBox="0 0 97 97" style="enable-background:new 0 0 97 97;" xml:space="preserve">
<g id="XMLID_3_">
	<circle id="XMLID_7_" style="fill:#3F578D;" cx="55.3" cy="13.46" r="5"/>
	<circle id="XMLID_8_" style="fill:#3F578D;" cx="85.3" cy="13.46" r="5"/>
	<circle id="XMLID_11_" style="fill:#3F578D;" cx="70.3" cy="13.46" r="5"/>
	<path id="XMLID_13_" style="fill:#3F578D;" d="M5.64,8.47c-2.77,0-5,2.24-5,5c0,2.76,2.24,5,5,5c2.76,0,5-2.24,5-5
		C10.64,10.7,8.4,8.47,5.64,8.47z"/>
</g>
<g id="XMLID_6_">
	<path id="XMLID_10_" style="fill:#3F578D;" d="M54.479,78.76c-2.76,0-5,2.23-5,5c0,2.76,2.24,5,5,5c2.761,0,5-2.24,5-5
		C59.479,80.99,57.24,78.76,54.479,78.76z"/>
	<path id="XMLID_15_" style="fill:#3F578D;" d="M84.479,78.76c-2.76,0-5,2.23-5,5c0,2.76,2.24,5,5,5c2.761,0,5-2.24,5-5
		C89.479,80.99,87.24,78.76,84.479,78.76z"/>
	<path id="XMLID_16_" style="fill:#3F578D;" d="M39.48,78.76c-2.76,0-5,2.23-5,5c0,2.76,2.24,5,5,5c2.76,0,5-2.24,5-5
		C44.48,80.99,42.24,78.76,39.48,78.76z"/>
	<path id="XMLID_17_" style="fill:#3F578D;" d="M69.479,78.76c-2.76,0-5,2.23-5,5c0,2.76,2.24,5,5,5c2.761,0,5-2.24,5-5
		C74.479,80.99,72.24,78.76,69.479,78.76z"/>
</g>
<path id="XMLID_41_" style="fill:#3F578D;" d="M83.063,44.11c0.345,1.41,0.548,2.875,0.548,4.39c0,1.594-0.224,3.133-0.605,4.609H97
	v-9H83.063z"/>
<g id="XMLID_2_">
	<polygon id="XMLID_12_" style="fill:#3F578D;" points="14.663,44.11 0,44.11 0,53.109 12.461,53.109 	"/>
	<path id="XMLID_38_" style="fill:#3F578D;" d="M47.16,44.11H30.106l-2.202,9h19.313c-0.381-1.477-0.605-3.016-0.605-4.609
		C46.611,46.985,46.814,45.52,47.16,44.11z"/>
</g>
<path id="XMLID_18_" style="fill:#00A3D3;" d="M65.111,36c-2.483,0-4.791,0.733-6.737,1.982L40.448,19.539
	c1.369-2.005,2.172-4.427,2.172-7.039c0-6.904-5.596-12.5-12.5-12.5s-12.5,5.596-12.5,12.5c0,4.992,2.933,9.287,7.163,11.291
	L12.979,72.024C12.819,72.018,12.662,72,12.5,72C5.596,72,0,77.596,0,84.5S5.596,97,12.5,97S25,91.404,25,84.5
	c0-4.992-2.933-9.287-7.163-11.291l11.804-48.234C29.801,24.982,29.958,25,30.12,25c2.483,0,4.792-0.733,6.737-1.982l17.926,18.443
	c-1.369,2.005-2.172,4.428-2.172,7.039c0,6.904,5.596,12.5,12.5,12.5s12.5-5.596,12.5-12.5S72.015,36,65.111,36z"/>
</svg>
