<?xml version="1.0" encoding="iso-8859-1"?>

<svg version="1.1" id="Capa_1" xmlns="http://www.w3.org/2000/svg" xmlns:xlink="http://www.w3.org/1999/xlink" x="0px" y="0px"
	 viewBox="0 0 97 97" style="enable-background:new 0 0 97 97;" xml:space="preserve">
<polygon id="XMLID_205_" style="fill:#FFFFFF;" points="69.798,4.726 69.16,93.862 5.765,94.287 3.638,22.809 22.784,3.237 "/>
<linearGradient id="XMLID_8_" gradientUnits="userSpaceOnUse" x1="52.7274" y1="54.0975" x2="88.9141" y2="90.2842">
	<stop  offset="0" style="stop-color:#3F578D"/>
	<stop  offset="1" style="stop-color:#009DD1"/>
</linearGradient>
<path id="XMLID_19_" style="fill:url(#XMLID_8_);" d="M70.82,47.215c-14.451,0-26.208,11.204-26.208,24.976
	c0,13.772,11.757,24.977,26.208,24.977c14.452,0,26.209-11.204,26.209-24.977C97.029,58.419,85.272,47.215,70.82,47.215z"/>
<path id="XMLID_17_" style="fill:#FFFFFF;" d="M84.814,70.524H69.237c0-2.382-0.001-4.764,0.001-7.146h-0.019
	c-3.993,3.196-7.989,6.389-11.981,9.586c3.998,3.202,8,6.401,12,9.601c0.001-2.396-0.002-4.791,0.001-7.187
	c0.088-0.001,0.175,0.007,0.262,0.009v-0.013h15.314V70.524z"/>
<g id="XMLID_1_">
	<path id="XMLID_2_" style="fill:#3F578D;" d="M38.187,28.411h21.345c1.657,0,3-1.343,3-3s-1.343-3-3-3H38.187c-1.657,0-3,1.343-3,3
		S36.531,28.411,38.187,28.411z"/>
	<path id="XMLID_15_" style="fill:#3F578D;" d="M59.532,37.282H27c-1.452,0-2.629,1.177-2.629,2.629s1.177,2.629,2.629,2.629h32.532
		c1.452,0,2.63-1.177,2.63-2.629S60.984,37.282,59.532,37.282z"/>
	<circle id="XMLID_16_" style="fill:#3F578D;" cx="16.833" cy="39.911" r="3.833"/>
	<circle id="XMLID_18_" style="fill:#3F578D;" cx="16.833" cy="54.701" r="3.833"/>
	<circle id="XMLID_20_" style="fill:#3F578D;" cx="16.833" cy="69.634" r="3.833"/>
	<path id="XMLID_28_" style="fill:#3F578D;" d="M27,67.004c-1.452,0-2.629,1.178-2.629,2.63s1.177,2.63,2.629,2.63h12.614
		c0-0.025-0.002-0.049-0.002-0.073c0-1.769,0.17-3.5,0.477-5.187H27z"/>
	<path id="XMLID_29_" style="fill:#3F578D;" d="M24.371,54.7c0,1.452,1.177,2.63,2.629,2.63h16.735
		c1.129-1.89,2.458-3.656,3.973-5.26H27C25.548,52.07,24.371,53.248,24.371,54.7z"/>
</g>
<linearGradient id="XMLID_9_" gradientUnits="userSpaceOnUse" x1="4.4632" y1="15.963" x2="69.4124" y2="80.9122">
	<stop  offset="0" style="stop-color:#3F578D"/>
	<stop  offset="1" style="stop-color:#009DD1"/>
</linearGradient>
<path id="XMLID_14_" style="fill:url(#XMLID_9_);" d="M45.735,90H8.727C7.791,90,7,89.209,7,88.273V24.912h14.739c1.65,0,3-1.35,3-3
	V7.272c0-0.093-0.019-0.181-0.028-0.272h40.562C66.209,7,67,7.791,67,8.727v33.721c1.253-0.148,2.526-0.233,3.82-0.233
	c1.073,0,2.134,0.052,3.18,0.155V8.727C74,3.915,70.085,0,65.273,0H21.876c-0.929,0-1.818,0.369-2.475,1.025l-3.247,3.247
	L3.067,17.359l-2.042,2.042C0.369,20.058,0,20.948,0,21.876v66.397C0,93.085,3.915,97,8.727,97h44.598
	C50.403,95.093,47.836,92.722,45.735,90z"/>
</svg>
