<?xml version="1.0" encoding="iso-8859-1"?>

<svg version="1.1" id="Capa_1" xmlns="http://www.w3.org/2000/svg" xmlns:xlink="http://www.w3.org/1999/xlink" x="0px" y="0px"
	 viewBox="0 0 97 97" style="enable-background:new 0 0 97 97;" xml:space="preserve">
<polygon id="XMLID_205_" style="fill:#FFFFFF;" points="69.798,4.726 69.16,93.862 5.765,94.287 3.638,22.809 22.784,3.237 "/>
<linearGradient id="XMLID_8_" gradientUnits="userSpaceOnUse" x1="52.7274" y1="54.0975" x2="88.9141" y2="90.2842">
	<stop  offset="0" style="stop-color:#3F578D"/>
	<stop  offset="1" style="stop-color:#009DD1"/>
</linearGradient>
<path id="XMLID_16_" style="fill:url(#XMLID_8_);" d="M70.82,47.215c-14.451,0-26.208,11.204-26.208,24.976
	c0,13.772,11.757,24.977,26.208,24.977c14.452,0,26.209-11.204,26.209-24.977C97.029,58.419,85.272,47.215,70.82,47.215z"/>
<path id="XMLID_29_" style="fill:#FFFFFF;" d="M57.061,70.167c0,6.349,5.144,11.496,11.495,11.496c1.852,0,3.599-0.44,5.148-1.217
	l5.751,5.751l0.014-0.014c0.575,0.586,1.38,0.947,2.281,0.947c1.763,0,3.169-1.38,3.169-3.145c0-0.914-0.365-1.722-0.96-2.291
	l0.019-0.019l-5.574-5.574c1.046-1.732,1.648-3.762,1.648-5.934c0-6.348-5.145-11.496-11.496-11.496S57.061,63.819,57.061,70.167z
	 M61.303,69.958c0-3.968,3.215-7.185,7.184-7.185s7.185,3.217,7.185,7.185c0,3.968-3.216,7.185-7.185,7.185
	S61.302,73.926,61.303,69.958z"/>
<g id="XMLID_1_">
	<path id="XMLID_2_" style="fill:#3F578D;" d="M38.187,28.411h21.345c1.657,0,3-1.343,3-3s-1.343-3-3-3H38.187c-1.657,0-3,1.343-3,3
		S36.531,28.411,38.187,28.411z"/>
	<path id="XMLID_13_" style="fill:#3F578D;" d="M59.532,37.282H27c-1.452,0-2.629,1.177-2.629,2.629s1.177,2.629,2.629,2.629h32.532
		c1.452,0,2.63-1.177,2.63-2.629S60.984,37.282,59.532,37.282z"/>
	<circle id="XMLID_14_" style="fill:#3F578D;" cx="16.833" cy="39.911" r="3.833"/>
	<circle id="XMLID_17_" style="fill:#3F578D;" cx="16.833" cy="54.701" r="3.833"/>
	<path id="XMLID_18_" style="fill:#3F578D;" d="M24.371,54.7c0,1.452,1.177,2.63,2.629,2.63h16.735
		c1.129-1.89,2.458-3.656,3.973-5.26H27C25.548,52.07,24.371,53.248,24.371,54.7z"/>
</g>
<path id="XMLID_15_" style="fill:#00A3D3;" d="M39.705,74.382c-0.545,0.385-1.082,0.826-1.634,1.294
	c-0.085,0.067-0.17,0.138-0.255,0.209c-0.394,0.327-0.8,0.665-1.303,0.716c0.014-0.389,0.038-0.786,0.161-1.155
	c0.489-1.553,1.266-3.018,2.017-4.434c0.243-0.459,0.486-0.917,0.72-1.378c0.419-0.799,0.548-1.533,0.376-2.204
	c-0.266-0.575-0.854-1.207-1.623-1.139c-0.989-0.132-1.695,0.484-2.378,1.085c-0.191,0.169-0.372,0.328-0.562,0.473
	c-0.937,0.764-1.872,1.564-2.776,2.339c-2.261,1.936-4.597,3.936-7.162,5.542c0.126-0.649,0.467-1.24,0.798-1.814
	c0.109-0.189,0.218-0.378,0.317-0.564c1.509-2.598,3.303-5.188,5.344-7.721c0.028-0.053,0.076-0.11,0.126-0.171
	c0.136-0.165,0.322-0.391,0.162-0.687c-0.323-0.362-0.679-0.7-1.023-1.027c-0.314-0.299-0.639-0.607-0.935-0.931l-0.086-0.095
	l-0.092,0.089c-0.837,0.801-1.626,1.673-2.39,2.517c-0.697,0.771-1.417,1.566-2.17,2.305h-0.001
	c-0.437,0.436-0.87,0.875-1.304,1.314c-1.974,2.001-4.016,4.069-6.352,5.701l-0.104,0.067c-0.713,0.461-1.521,0.979-2.306,0.605
	c-0.908-0.435-1.504-1.276-2.081-2.091c-0.177-0.25-0.353-0.497-0.536-0.733l-0.101-0.129l-0.098,0.132
	c-0.542,0.729-1.105,1.438-1.542,1.983c-0.03,0.045-0.069,0.093-0.109,0.142c-0.158,0.195-0.397,0.49-0.168,0.787
	c0.749,1.295,1.832,2.389,3.127,3.162c1.272,0.793,2.962,0.792,4.307-0.008c1.047-0.639,1.996-1.443,2.913-2.222
	c0.155-0.132,0.311-0.264,0.466-0.395c-0.074,0.914-0.016,2.085,0.813,2.865c1.003,1.065,2.598,1.078,3.732,0.618
	c1.631-0.642,3.029-1.689,4.559-2.893l0.465-0.371c0.72-0.573,1.46-1.163,2.163-1.787c-0.266,1-0.521,2.249-0.109,3.395
	c0.272,0.894,0.926,1.634,1.84,2.086c0.972,0.48,2.12,0.557,3.068,0.2c0.901-0.308,1.647-0.883,2.359-1.472
	C40.024,77.219,39.813,75.814,39.705,74.382z"/>
<linearGradient id="XMLID_9_" gradientUnits="userSpaceOnUse" x1="4.4632" y1="15.963" x2="69.4124" y2="80.9122">
	<stop  offset="0" style="stop-color:#3F578D"/>
	<stop  offset="1" style="stop-color:#009DD1"/>
</linearGradient>
<path id="XMLID_11_" style="fill:url(#XMLID_9_);" d="M45.735,90H8.727C7.791,90,7,89.209,7,88.273V24.912h14.739c1.65,0,3-1.35,3-3
	V7.272c0-0.093-0.019-0.181-0.028-0.272h40.562C66.209,7,67,7.791,67,8.727v33.721c1.253-0.148,2.526-0.233,3.82-0.233
	c1.073,0,2.134,0.052,3.18,0.155V8.727C74,3.915,70.085,0,65.273,0H21.876c-0.929,0-1.818,0.369-2.475,1.025l-3.247,3.247
	L3.067,17.359l-2.042,2.042C0.369,20.058,0,20.948,0,21.876v66.397C0,93.085,3.915,97,8.727,97h44.598
	C50.403,95.093,47.836,92.722,45.735,90z"/>
</svg>
