<?xml version="1.0" encoding="iso-8859-1"?>

<svg version="1.1" id="Capa_1" xmlns="http://www.w3.org/2000/svg" xmlns:xlink="http://www.w3.org/1999/xlink" x="0px" y="0px"
	 viewBox="0 0 97 97" style="enable-background:new 0 0 97 97;" xml:space="preserve">
<g id="XMLID_2_">
	<linearGradient id="XMLID_7_" gradientUnits="userSpaceOnUse" x1="42.5598" y1="97" x2="42.5598" y2="-1.269655e-009">
		<stop  offset="0" style="stop-color:#3F578D"/>
		<stop  offset="1" style="stop-color:#009DD1"/>
	</linearGradient>
	<path id="XMLID_3_" style="fill:url(#XMLID_7_);" d="M78.584,61.679c-1.348,0-2.601-0.691-3.351-1.848
		c-0.082-0.127-0.153-0.26-0.221-0.394c-0.896,1.016-1.789,2.03-2.706,3.055c-5.788,6.383-10.444,11.097-15.12,15.304
		c-2.156,1.9-4.292,3.735-6.715,5.295l-0.044,0.028l-0.045,0.027l-0.115,0.068c-0.974,0.581-2.182,1.302-3.732,1.52
		c-0.201,0.032-0.405,0.048-0.609,0.048c-1.983,0-3.626-1.441-3.857-3.365c-0.199-1.469,0.204-2.734,0.499-3.661l0.02-0.062
		l0.014-0.044l0.015-0.044c0.951-2.699,2.327-5.125,3.557-7.294c3.696-6.354,7.907-12.277,11.551-17.249
		c2.985-4.014,5.76-7.589,8.485-10.929l1.657-2.031l0.001,0.001l0.004-0.005l0.048,0.029l0.498-0.647
		c1.169-1.52,2.405-2.987,3.599-4.406c0.533-0.633,1.065-1.266,1.617-1.932l0.534-0.63c1.716-2.026,3.484-4.102,5.392-6.079V8.727
		C79.56,3.915,75.645,0,70.833,0H14.286C9.474,0,5.56,3.915,5.56,8.727v5.998l7.587,0.017c2.999,0.007,5.433,2.452,5.426,5.45
		c-0.003,1.453-0.572,2.817-1.602,3.841c-1.026,1.022-2.388,1.584-3.836,1.584c-0.004,0-0.008,0-0.013,0L5.56,25.599v8.014
		l7.587,0.017c2.999,0.007,5.433,2.452,5.426,5.45c-0.003,1.453-0.572,2.817-1.602,3.841c-1.026,1.022-2.388,1.584-3.836,1.584
		c-0.004,0-0.008,0-0.013,0L5.56,44.488v8.014l7.587,0.017c2.999,0.007,5.433,2.451,5.426,5.449
		c-0.003,1.453-0.572,2.817-1.602,3.842c-1.026,1.021-2.388,1.584-3.836,1.584c-0.004,0-0.008,0-0.013,0L5.56,63.377v8.014
		l7.587,0.017c2.999,0.007,5.433,2.451,5.426,5.449c-0.003,1.453-0.572,2.817-1.602,3.842c-1.026,1.021-2.388,1.584-3.836,1.584
		c-0.004,0-0.008,0-0.013,0L5.56,82.266v6.008C5.56,93.085,9.474,97,14.286,97H42.56h28.273c4.812,0,8.727-3.915,8.727-8.727V61.588
		C79.246,61.639,78.924,61.676,78.584,61.679z"/>
	<linearGradient id="XMLID_8_" gradientUnits="userSpaceOnUse" x1="45.9432" y1="81.772" x2="45.9432" y2="81.7646">
		<stop  offset="0" style="stop-color:#3F578D"/>
		<stop  offset="1" style="stop-color:#009DD1"/>
	</linearGradient>
	<path id="XMLID_5_" style="fill:url(#XMLID_8_);" d="M45.994,81.767c-0.034,0.003-0.068-0.001-0.102-0.002
		c0.015,0.001,0.028,0.007,0.043,0.007C45.955,81.772,45.974,81.768,45.994,81.767z"/>
</g>
<path id="XMLID_274_" style="fill:#FFFFFF;" d="M59.226,35.058h-28c-1.65,0-3-1.35-3-3V16.724c0-1.65,1.35-3,3-3h28
	c1.65,0,3,1.35,3,3v15.333C62.226,33.708,60.876,35.058,59.226,35.058z"/>
<g id="XMLID_4_">
	<path id="XMLID_41_" style="fill:#00A3D3;" d="M2.443,17.717c-0.002,0-0.004,0-0.005,0c-1.342,0-2.435,1.09-2.438,2.432
		c-0.003,1.344,1.088,2.44,2.433,2.443l10.702,0.024c0.002,0,0.004,0,0.005,0c1.342,0,2.435-1.09,2.438-2.432
		c0.003-1.344-1.088-2.44-2.433-2.443L2.443,17.717z"/>
	<path id="XMLID_42_" style="fill:#00A3D3;" d="M2.443,36.606c-0.002,0-0.004,0-0.005,0c-1.342,0-2.435,1.09-2.438,2.432
		c-0.003,1.344,1.088,2.44,2.433,2.443l10.702,0.024c0.002,0,0.004,0,0.005,0c1.342,0,2.435-1.09,2.438-2.432
		c0.003-1.344-1.088-2.44-2.433-2.443L2.443,36.606z"/>
	<path id="XMLID_43_" style="fill:#00A3D3;" d="M2.443,55.495c-0.001,0-0.003,0-0.005,0c-1.342,0-2.435,1.09-2.438,2.432
		c-0.003,1.345,1.088,2.44,2.433,2.443l10.702,0.023c0.001,0,0.003,0,0.005,0c1.342,0,2.435-1.09,2.438-2.432
		c0.003-1.345-1.088-2.44-2.433-2.443L2.443,55.495z"/>
	<path id="XMLID_44_" style="fill:#00A3D3;" d="M2.443,74.384c-0.002,0-0.004,0-0.005,0c-1.342,0-2.435,1.09-2.438,2.432
		c-0.001,0.651,0.251,1.265,0.71,1.726c0.459,0.461,1.071,0.717,1.723,0.718l10.702,0.024c0.002,0,0.004,0,0.005,0
		c1.342,0,2.435-1.09,2.438-2.432c0.003-1.345-1.088-2.44-2.433-2.443L2.443,74.384z"/>
	
		<linearGradient id="XMLID_9_" gradientUnits="userSpaceOnUse" x1="121.0578" y1="2.7512" x2="113.1828" y2="2.7512" gradientTransform="matrix(0.0022 -1 1 0.0022 6.2757 137.2806)">
		<stop  offset="0" style="stop-color:#FFFFFF"/>
		<stop  offset="0.5" style="stop-color:#FFFFFF;stop-opacity:0"/>
	</linearGradient>
	<path id="XMLID_119_" style="fill:url(#XMLID_9_);" d="M18.578,20.187c0.005-2.175-1.754-3.941-3.929-3.946L3.947,16.217
		C1.772,16.212,0.005,17.971,0,20.146s1.754,3.941,3.929,3.946l10.702,0.024C16.806,24.121,18.573,22.362,18.578,20.187z"/>
	
		<linearGradient id="XMLID_10_" gradientUnits="userSpaceOnUse" x1="102.169" y1="2.7935" x2="94.294" y2="2.7935" gradientTransform="matrix(0.0022 -1 1 0.0022 6.2757 137.2806)">
		<stop  offset="0" style="stop-color:#FFFFFF"/>
		<stop  offset="0.5" style="stop-color:#FFFFFF;stop-opacity:0"/>
	</linearGradient>
	<path id="XMLID_108_" style="fill:url(#XMLID_10_);" d="M18.578,39.076c0.005-2.175-1.754-3.941-3.929-3.946L3.947,35.106
		C1.772,35.101,0.005,36.86,0,39.035c-0.005,2.175,1.754,3.941,3.929,3.946l10.702,0.024C16.806,43.01,18.573,41.251,18.578,39.076z
		"/>
	
		<linearGradient id="XMLID_11_" gradientUnits="userSpaceOnUse" x1="83.2802" y1="2.8358" x2="75.4052" y2="2.8358" gradientTransform="matrix(0.0022 -1 1 0.0022 6.2757 137.2806)">
		<stop  offset="0" style="stop-color:#FFFFFF"/>
		<stop  offset="0.5" style="stop-color:#FFFFFF;stop-opacity:0"/>
	</linearGradient>
	<path id="XMLID_95_" style="fill:url(#XMLID_11_);" d="M18.578,57.965c0.005-2.175-1.754-3.941-3.929-3.946L3.947,53.995
		C1.772,53.99,0.005,55.749,0,57.924c-0.005,2.175,1.754,3.941,3.929,3.946l10.702,0.024C16.806,61.899,18.573,60.14,18.578,57.965z
		"/>
	
		<linearGradient id="XMLID_12_" gradientUnits="userSpaceOnUse" x1="64.3913" y1="2.8781" x2="56.5163" y2="2.8781" gradientTransform="matrix(0.0022 -1 1 0.0022 6.2757 137.2806)">
		<stop  offset="0" style="stop-color:#FFFFFF"/>
		<stop  offset="0.5" style="stop-color:#FFFFFF;stop-opacity:0"/>
	</linearGradient>
	<path id="XMLID_84_" style="fill:url(#XMLID_12_);" d="M18.578,76.854c0.005-2.175-1.754-3.941-3.929-3.946L3.947,72.884
		C1.772,72.879,0.005,74.638,0,76.813s1.754,3.941,3.929,3.946l10.702,0.024C16.806,80.788,18.573,79.029,18.578,76.854z"/>
</g>
<g id="XMLID_1_">
	<path id="XMLID_83_" style="fill:#00A3D3;" d="M87.391,24.188c1.24-0.404,2.588,0.023,3.587,0.796
		c1.169,0.882,2.337,2.036,2.517,3.562c0.157,1.619-0.597,3.138-1.353,4.517c-1.617,2.813-3.665,5.343-5.655,7.893
		c-2.138,2.674-4.3,5.331-6.493,7.962c-3.091-2.503-6.137-5.064-9.194-7.608c1.639-2.129,3.412-4.154,5.125-6.226
		c2.34-2.759,4.663-5.549,7.279-8.055C84.445,25.886,85.762,24.724,87.391,24.188z"/>
	<path id="XMLID_73_" style="fill:#00A3D3;" d="M68.539,44.029c0.727,0.446,1.335,1.056,2.003,1.584
		c2.395,2.008,4.842,3.959,7.2,6.011c-2.461,3.024-5.054,5.941-7.655,8.846c-4.742,5.23-9.629,10.342-14.878,15.066
		c-2.025,1.785-4.08,3.559-6.354,5.022c-0.861,0.512-1.752,1.066-2.763,1.2c-0.471,0.087-0.989-0.229-1.038-0.725
		c-0.121-0.832,0.152-1.655,0.401-2.438c0.839-2.382,2.079-4.593,3.32-6.781c3.425-5.888,7.339-11.473,11.363-16.964
		C62.864,51.183,65.652,47.567,68.539,44.029z"/>
	<linearGradient id="XMLID_13_" gradientUnits="userSpaceOnUse" x1="78.9326" y1="31.4969" x2="88.1339" y2="39.2177">
		<stop  offset="0" style="stop-color:#FFFFFF;stop-opacity:0.8"/>
		<stop  offset="0.5" style="stop-color:#FFFFFF;stop-opacity:0"/>
	</linearGradient>
	<path id="XMLID_67_" style="fill:url(#XMLID_13_);" d="M87.39,24.188c1.24-0.404,2.588,0.023,3.588,0.796
		c1.17,0.883,2.337,2.036,2.518,3.563c0.157,1.619-0.597,3.139-1.354,4.518c-1.617,2.814-3.666,5.344-5.656,7.894
		c-2.139,2.675-4.301,5.332-6.494,7.963c-3.092-2.503-6.138-5.064-9.196-7.609c1.639-2.13,3.413-4.155,5.126-6.227
		c2.341-2.76,4.664-5.55,7.281-8.057C84.442,25.886,85.76,24.724,87.39,24.188z"/>
	<linearGradient id="XMLID_14_" gradientUnits="userSpaceOnUse" x1="54.5369" y1="60.7134" x2="63.6914" y2="68.3949">
		<stop  offset="0" style="stop-color:#FFFFFF;stop-opacity:0.8"/>
		<stop  offset="0.5" style="stop-color:#FFFFFF;stop-opacity:0"/>
	</linearGradient>
	<path id="XMLID_55_" style="fill:url(#XMLID_14_);" d="M68.534,44.032c0.727,0.446,1.336,1.056,2.003,1.585
		c2.395,2.009,4.842,3.96,7.201,6.012c-2.462,3.025-5.055,5.942-7.656,8.847c-4.743,5.231-9.631,10.344-14.881,15.069
		c-2.025,1.785-4.081,3.559-6.355,5.023c-0.861,0.513-1.753,1.067-2.763,1.2c-0.471,0.087-0.989-0.229-1.038-0.726
		c-0.121-0.832,0.152-1.655,0.401-2.438c0.839-2.382,2.079-4.593,3.321-6.783c3.426-5.889,7.34-11.475,11.365-16.968
		C62.858,51.189,65.646,47.572,68.534,44.032z"/>
	<g id="XMLID_46_">
		<path id="XMLID_101_" style="fill:#00A3D3;" d="M93.561,36.317c0.343-0.577,1.076-0.904,1.718-0.635
			c0.716,0.33,1.234,0.964,1.702,1.581v0.919c-3.463,5.262-7.615,10.017-11.515,14.949c-1.252,1.561-2.433,3.23-4.075,4.416
			c-0.823,0.588-1.765,1.137-2.804,1.144c-0.891,0.007-1.292-1.146-0.973-1.86c0.35-0.695,0.917-1.249,1.377-1.868
			c3.021-3.889,6.164-7.676,9.239-11.52C90.08,41.122,91.921,38.791,93.561,36.317z"/>
	</g>
	<g id="XMLID_45_">
		<linearGradient id="XMLID_15_" gradientUnits="userSpaceOnUse" x1="85.4132" y1="45.9984" x2="89.0056" y2="49.0127">
			<stop  offset="0" style="stop-color:#FFFFFF;stop-opacity:0.8"/>
			<stop  offset="0.5" style="stop-color:#FFFFFF;stop-opacity:0"/>
		</linearGradient>
		<path id="XMLID_99_" style="fill:url(#XMLID_15_);" d="M93.561,36.319c0.343-0.578,1.076-0.904,1.718-0.635
			c0.717,0.33,1.235,0.964,1.702,1.581v0.919c-3.464,5.263-7.617,10.019-11.517,14.952c-1.253,1.561-2.433,3.231-4.075,4.417
			c-0.823,0.588-1.765,1.137-2.805,1.144c-0.892,0.007-1.292-1.146-0.973-1.861c0.35-0.695,0.917-1.249,1.377-1.868
			c3.021-3.889,6.165-7.678,9.241-11.522C90.079,41.125,91.92,38.794,93.561,36.319z"/>
	</g>
</g>
</svg>
