<?xml version="1.0" encoding="iso-8859-1"?>

<svg version="1.1" id="Capa_1" xmlns="http://www.w3.org/2000/svg" xmlns:xlink="http://www.w3.org/1999/xlink" x="0px" y="0px"
	 viewBox="0 0 97 97" style="enable-background:new 0 0 97 97;" xml:space="preserve">
<polygon id="XMLID_205_" style="fill:#FFFFFF;" points="69.798,4.726 69.16,93.862 5.765,94.287 3.638,22.809 22.784,3.237 "/>
<path id="XMLID_8_" style="fill:#3F578D;" d="M62.054,17.596c-0.055-1.199-1.011-2.249-2.241-2.444
	c-0.297-0.036-0.599-0.036-0.896-0.035l-24.8,0.002c-1.171-0.064-2.267,0.687-2.636,1.768l-5.265,18.091
	c-0.36,1.22-0.713,2.441-1.067,3.662c-0.413,1.426-0.826,2.853-1.249,4.276c-0.116-0.278-0.232-0.556-0.349-0.834
	c-0.254-0.605-0.508-1.211-0.77-1.847c-0.083-0.172-0.153-0.35-0.223-0.528c-0.153-0.388-0.311-0.788-0.612-1.182
	c-0.553-0.639-1.372-1-2.167-0.971l-4.938,0.001c-0.723,0.004-1.366,0.224-1.782,0.595c-0.509,0.387-0.855,0.989-0.98,1.778
	l0.001,0.348c0.053,0.667,0.366,1.298,0.837,1.712c0.481,0.474,1.184,0.737,1.932,0.709l3.19-0.002
	c0.031,0.068,0.063,0.149,0.098,0.249l3.375,8.072c0.146,0.381,0.313,0.813,0.641,1.191c0.549,0.59,1.297,0.936,1.995,0.936
	c0.027,0,0.055-0.001,0.082-0.002c0.856,0.005,1.763-0.462,2.231-1.19c0.252-0.358,0.356-0.755,0.447-1.104
	c0.043-0.167,0.086-0.334,0.161-0.531l8.568-28.862c0.087-0.244,0.154-0.493,0.221-0.742c0.038-0.141,0.075-0.281,0.117-0.42
	c4.549-0.01,9.098-0.009,13.646-0.007c3.222,0.001,6.443,0.002,9.663-0.001c0.529-0.031,0.972-0.099,1.3-0.289
	c0.81-0.377,1.373-1.176,1.472-2.137L62.054,17.596z"/>
<linearGradient id="XMLID_10_" gradientUnits="userSpaceOnUse" x1="52.8209" y1="53.9334" x2="89.0078" y2="90.1202">
	<stop  offset="0" style="stop-color:#3F578D"/>
	<stop  offset="1" style="stop-color:#009DD1"/>
</linearGradient>
<path id="XMLID_20_" style="fill:url(#XMLID_10_);" d="M70.914,47.051c-14.451,0-26.208,11.204-26.208,24.976
	c0,13.772,11.757,24.977,26.208,24.977c14.452,0,26.209-11.204,26.209-24.977C97.123,58.255,85.366,47.051,70.914,47.051z"/>
<path id="XMLID_17_" style="fill:#FFFFFF;" d="M84.48,69.857H68.904c0-2.382-0.001-4.764,0.001-7.146l-0.019,0
	c-3.993,3.196-7.989,6.389-11.981,9.586c3.998,3.202,8,6.401,12,9.601c0.001-2.396-0.002-4.791,0.001-7.187
	c0.088-0.001,0.175,0.007,0.262,0.009v-0.013H84.48V69.857z"/>
<g id="XMLID_1_">
	<circle id="XMLID_2_" style="fill:#3F578D;" cx="15.833" cy="60.701" r="3.833"/>
	<circle id="XMLID_16_" style="fill:#3F578D;" cx="15.833" cy="75.634" r="3.833"/>
	<path id="XMLID_28_" style="fill:#3F578D;" d="M26,58.07c-1.452,0-2.629,1.178-2.629,2.63s1.177,2.63,2.629,2.63h15.049
		c0.58-1.834,1.34-3.592,2.257-5.26H26z"/>
	<path id="XMLID_29_" style="fill:#3F578D;" d="M26,73.004c-1.452,0-2.629,1.178-2.629,2.63s1.177,2.63,2.629,2.63h14.39
		c-0.377-1.705-0.598-3.463-0.658-5.26H26z"/>
</g>
<path id="XMLID_19_" style="fill:#3F578D;" d="M45.564,47.207l4.212-6.357l4.05,6.113c1.464-0.924,3.013-1.733,4.633-2.413
	l-5.602-8.067l6.63-9.438h-6.123l-3.51,5.265l-3.549-5.265h-6.318l6.63,9.555l-7.254,10.608H45.564z"/>
<linearGradient id="XMLID_11_" gradientUnits="userSpaceOnUse" x1="4.4632" y1="15.963" x2="69.589" y2="81.0888">
	<stop  offset="0" style="stop-color:#3F578D"/>
	<stop  offset="1" style="stop-color:#009DD1"/>
</linearGradient>
<path id="XMLID_9_" style="fill:url(#XMLID_11_);" d="M65.273,0H21.876c-0.929,0-1.818,0.369-2.475,1.025l-3.247,3.247L3.067,17.359
	l-2.042,2.042C0.369,20.058,0,20.948,0,21.876v66.397C0,93.085,3.915,97,8.727,97h44.951c-2.969-1.897-5.585-4.267-7.724-7H8.727
	C7.791,90,7,89.209,7,88.273V24.912h14.739c1.65,0,3-1.35,3-3V7.272c0-0.093-0.019-0.181-0.028-0.272h40.562
	C66.209,7,67,7.791,67,8.727v33.568c1.283-0.155,2.588-0.244,3.914-0.244c1.041,0,2.07,0.051,3.086,0.148V8.727
	C74,3.915,70.085,0,65.273,0z"/>
</svg>
