<?xml version="1.0" encoding="iso-8859-1"?>

<svg version="1.1" id="Capa_1" xmlns="http://www.w3.org/2000/svg" xmlns:xlink="http://www.w3.org/1999/xlink" x="0px" y="0px"
	 viewBox="0 0 97 97" style="enable-background:new 0 0 97 97;" xml:space="preserve">
<polygon id="XMLID_205_" style="fill:#FFFFFF;" points="69.798,4.726 69.16,93.862 5.765,94.287 3.638,22.809 22.784,3.237 "/>
<g id="XMLID_1_">
	<path id="XMLID_28_" style="fill:#3F578D;" d="M12.229,35.198c0.078-1.3,0.403-2.379,0.975-3.237
		c0.571-0.857,1.3-1.546,2.184-2.066s1.872-0.891,2.964-1.112c1.092-0.22,2.209-0.331,3.354-0.331c1.014,0,2.041,0.072,3.081,0.215
		c1.04,0.143,1.989,0.423,2.847,0.838c0.858,0.416,1.56,1.001,2.106,1.755c0.546,0.755,0.819,1.729,0.819,2.926v10.49
		c0,0.911,0.052,1.781,0.156,2.613C30.818,48.12,31,48.744,31.26,49.16h-5.616c-0.104-0.312-0.189-0.63-0.253-0.956
		c-0.065-0.325-0.111-0.656-0.137-0.995c-0.884,0.91-1.924,1.554-3.12,1.931c-1.196,0.377-2.418,0.565-3.666,0.565
		c-0.962,0-1.859-0.124-2.691-0.37c-0.833-0.247-1.56-0.618-2.184-1.112s-1.111-1.118-1.462-1.872s-0.526-1.651-0.526-2.691
		c0-1.144,0.195-2.087,0.585-2.827c0.39-0.741,0.91-1.332,1.56-1.774c0.649-0.442,1.384-0.773,2.204-0.995
		c0.819-0.221,1.657-0.396,2.515-0.526c0.858-0.13,1.677-0.234,2.457-0.312c0.78-0.078,1.476-0.195,2.086-0.352
		s1.098-0.383,1.463-0.683c0.364-0.298,0.546-0.734,0.546-1.307c0-0.598-0.098-1.072-0.292-1.423
		c-0.195-0.352-0.455-0.624-0.78-0.819s-0.702-0.324-1.131-0.39c-0.429-0.064-0.891-0.098-1.384-0.098
		c-1.066,0-1.918,0.234-2.555,0.702c-0.637,0.468-1.008,1.248-1.111,2.34H12.229z M25.021,39.292
		c-0.234,0.209-0.526,0.371-0.877,0.487c-0.351,0.117-0.729,0.215-1.131,0.293c-0.403,0.078-0.832,0.144-1.287,0.195
		c-0.456,0.052-0.891,0.116-1.307,0.194c-0.442,0.078-0.858,0.183-1.248,0.313s-0.735,0.306-1.034,0.526s-0.54,0.507-0.721,0.857
		c-0.182,0.352-0.273,0.774-0.273,1.268c0,0.521,0.091,0.943,0.273,1.268c0.182,0.326,0.429,0.585,0.741,0.78
		s0.676,0.332,1.092,0.409C19.664,45.961,20.093,46,20.536,46c1.092,0,1.937-0.182,2.535-0.546c0.598-0.363,1.04-0.8,1.326-1.307
		c0.286-0.507,0.461-1.02,0.526-1.54c0.064-0.521,0.098-0.937,0.098-1.248V39.292z"/>
	<path id="XMLID_32_" style="fill:#3F578D;" d="M34.653,21.314h5.538v10.14h0.078c0.676-1.039,1.592-1.8,2.75-2.281
		c1.156-0.481,2.359-0.722,3.607-0.722c1.014,0,2.014,0.208,3.002,0.624s1.879,1.053,2.672,1.911
		c0.793,0.857,1.436,1.956,1.93,3.295c0.494,1.34,0.742,2.932,0.742,4.778c0,1.846-0.248,3.438-0.742,4.777s-1.137,2.444-1.93,3.314
		c-0.793,0.872-1.684,1.516-2.672,1.931c-0.988,0.416-1.988,0.624-3.002,0.624c-1.482,0-2.809-0.24-3.979-0.722
		c-1.17-0.48-2.055-1.28-2.652-2.398h-0.078v2.575h-5.265V21.314z M49.434,39.098c0-0.858-0.09-1.678-0.271-2.457
		c-0.184-0.78-0.469-1.469-0.859-2.067c-0.389-0.598-0.883-1.072-1.48-1.424c-0.6-0.351-1.301-0.526-2.107-0.526
		c-0.832,0-1.539,0.176-2.125,0.526c-0.586,0.352-1.072,0.826-1.463,1.424c-0.389,0.599-0.676,1.287-0.857,2.067
		c-0.182,0.779-0.273,1.599-0.273,2.457c0,0.832,0.092,1.638,0.273,2.418c0.182,0.779,0.469,1.469,0.857,2.066
		c0.391,0.599,0.877,1.072,1.463,1.424c0.586,0.351,1.293,0.526,2.125,0.526c0.807,0,1.508-0.176,2.107-0.526
		c0.598-0.352,1.092-0.825,1.48-1.424c0.391-0.598,0.676-1.287,0.859-2.066C49.344,40.736,49.434,39.93,49.434,39.098z"/>
</g>
<linearGradient id="XMLID_9_" gradientUnits="userSpaceOnUse" x1="52.8209" y1="53.9334" x2="89.0078" y2="90.1202">
	<stop  offset="0" style="stop-color:#3F578D"/>
	<stop  offset="1" style="stop-color:#009DD1"/>
</linearGradient>
<path id="XMLID_18_" style="fill:url(#XMLID_9_);" d="M70.914,47.051c-14.451,0-26.208,11.204-26.208,24.976
	c0,13.772,11.757,24.977,26.208,24.977c14.452,0,26.209-11.204,26.209-24.977C97.123,58.255,85.366,47.051,70.914,47.051z"/>
<path id="XMLID_17_" style="fill:#FFFFFF;" d="M84.48,69.857H68.904c0-2.382-0.001-4.764,0.001-7.146l-0.019,0
	c-3.993,3.196-7.989,6.389-11.981,9.586c3.998,3.202,8,6.401,12,9.601c0.001-2.396-0.002-4.791,0.001-7.187
	c0.088-0.001,0.175,0.007,0.262,0.009v-0.013H84.48V69.857z"/>
<g id="XMLID_2_">
	<circle id="XMLID_3_" style="fill:#3F578D;" cx="15.833" cy="60.701" r="3.833"/>
	<circle id="XMLID_13_" style="fill:#3F578D;" cx="15.833" cy="75.634" r="3.833"/>
	<path id="XMLID_14_" style="fill:#3F578D;" d="M26,58.07c-1.452,0-2.629,1.178-2.629,2.63s1.177,2.63,2.629,2.63h15.049
		c0.58-1.834,1.34-3.592,2.257-5.26H26z"/>
	<path id="XMLID_15_" style="fill:#3F578D;" d="M26,73.004c-1.452,0-2.629,1.178-2.629,2.63s1.177,2.63,2.629,2.63h14.39
		c-0.377-1.705-0.598-3.463-0.658-5.26H26z"/>
</g>
<path id="XMLID_12_" style="fill:#3F578D;" d="M53.049,19.131h1.588c0.706-0.001,1.41-0.001,2.122,0.001c0.006,0,0.012,0,0.019,0
	c0.405,0,0.808,0.29,0.94,0.675c0.057,0.181,0.052,0.385,0.048,0.601c-0.002,0.083-0.004,0.167-0.002,0.245
	c0.002,4.62,0.001,9.241,0.001,13.861c-0.001,3.442,0.001,6.89,0.001,10.336c0.723-0.324,1.46-0.624,2.212-0.896l-0.001-23.846
	c-0.009-0.423,0.319-0.838,0.738-0.941c0.241-0.05,0.493-0.044,0.762-0.038c0.117,0.002,0.235,0.006,0.352,0.003
	c0.461-0.005,0.924-0.004,1.389-0.001c0.525,0.002,1.051,0.004,1.565-0.004c0.011,0,0.021,0,0.031,0c0.548,0,1.035-0.452,1.07-0.987
	c0.038-0.303-0.066-0.613-0.286-0.85c-0.219-0.236-0.521-0.368-0.81-0.348c-1.04-0.009-2.079-0.006-3.119-0.004l-0.702,0.001
	c-0.004,0-0.007,0-0.011,0c-0.735,0-1.482,0.285-2.083,0.789c-0.613-0.506-1.323-0.784-2.02-0.788c-1.309-0.006-2.616-0.006-3.915,0
	c-0.334,0-0.629,0.143-0.844,0.411c-0.212,0.265-0.294,0.608-0.22,0.917C51.986,18.802,52.511,19.178,53.049,19.131z"/>
<linearGradient id="XMLID_10_" gradientUnits="userSpaceOnUse" x1="4.4632" y1="15.963" x2="69.589" y2="81.0888">
	<stop  offset="0" style="stop-color:#3F578D"/>
	<stop  offset="1" style="stop-color:#009DD1"/>
</linearGradient>
<path id="XMLID_16_" style="fill:url(#XMLID_10_);" d="M45.954,90H8.727C7.791,90,7,89.209,7,88.273V24.912h14.739
	c1.65,0,3-1.35,3-3V7.272c0-0.093-0.019-0.181-0.028-0.272h40.562C66.209,7,67,7.791,67,8.727v33.568
	c1.283-0.155,2.588-0.244,3.914-0.244c1.041,0,2.07,0.051,3.086,0.148V8.727C74,3.915,70.085,0,65.273,0H21.876
	c-0.929,0-1.818,0.369-2.475,1.025l-3.247,3.247L3.067,17.359l-2.042,2.042C0.369,20.058,0,20.948,0,21.876v66.397
	C0,93.085,3.915,97,8.727,97h44.951C50.708,95.103,48.093,92.733,45.954,90z"/>
</svg>
