<?xml version="1.0" encoding="iso-8859-1"?>

<svg version="1.1" id="Capa_1" xmlns="http://www.w3.org/2000/svg" xmlns:xlink="http://www.w3.org/1999/xlink" x="0px" y="0px"
	 viewBox="0 0 97 97" style="enable-background:new 0 0 97 97;" xml:space="preserve">
<path id="XMLID_8_" style="fill:#FFFFFF;" d="M59.127,12.373v41.591c0,4.111,4.666,7.445,8.79,7.445s8.79-3.333,8.79-7.445V12.373
	H59.127z"/>
<g id="XMLID_4_">
	<polygon id="XMLID_5_" style="fill:none;" points="74.049,15.031 61.785,15.031 61.785,16 61.785,19.669 74.049,19.669 74.049,16 	
		"/>
	
		<linearGradient id="XMLID_29_" gradientUnits="userSpaceOnUse" x1="54.175" y1="86.3085" x2="81.658" y2="86.3085" gradientTransform="matrix(1 0 0 -1 0 96.11)">
		<stop  offset="0" style="stop-color:#3F578D"/>
		<stop  offset="1" style="stop-color:#009DD1"/>
	</linearGradient>
	<path id="XMLID_14_" style="fill:url(#XMLID_29_);" d="M61.785,16v-0.969h12.264V16v3.669h5.316V16v-1.636
		c1.366-0.813,2.293-2.289,2.293-3.99V4.592c0-2.568-2.09-4.658-4.658-4.658H58.833c-2.568,0-4.658,2.09-4.658,4.658v5.781
		c0,1.702,0.928,3.178,2.294,3.991V16v3.669h5.316L61.785,16z"/>
	
		<linearGradient id="XMLID_30_" gradientUnits="userSpaceOnUse" x1="54.1748" y1="56.447" x2="81.6582" y2="56.447" gradientTransform="matrix(1 0 0 -1 0 96.11)">
		<stop  offset="0" style="stop-color:#3F578D"/>
		<stop  offset="1" style="stop-color:#009DD1"/>
	</linearGradient>
	<path id="XMLID_28_" style="fill:url(#XMLID_30_);" d="M56.469,45.582c1.688-0.861,3.464-1.582,5.316-2.136v-9.702h-5.316V45.582z"
		/>
	
		<linearGradient id="XMLID_38_" gradientUnits="userSpaceOnUse" x1="54.1748" y1="57.6455" x2="81.6582" y2="57.6455" gradientTransform="matrix(1 0 0 -1 0 96.11)">
		<stop  offset="0" style="stop-color:#3F578D"/>
		<stop  offset="1" style="stop-color:#009DD1"/>
	</linearGradient>
	<path id="XMLID_36_" style="fill:url(#XMLID_38_);" d="M74.049,42.238c1.823,0.168,3.598,0.49,5.316,0.947v-9.441h-5.316V42.238z"
		/>
</g>
<linearGradient id="XMLID_40_" gradientUnits="userSpaceOnUse" x1="56.833" y1="88.6275" x2="79" y2="88.6275" gradientTransform="matrix(1 0 0 -1 0 96.11)">
	<stop  offset="0" style="stop-color:#3F578D"/>
	<stop  offset="1" style="stop-color:#009DD1"/>
</linearGradient>
<path id="XMLID_20_" style="fill:url(#XMLID_40_);" d="M77,12.373H58.833c-1.1,0-2-0.9-2-2V4.592c0-1.1,0.9-2,2-2H77
	c1.1,0,2,0.9,2,2v5.781C79,11.473,78.1,12.373,77,12.373z"/>
<path id="XMLID_15_" style="fill:#FFFFFF;" d="M20.67,12.373v41.591c0,4.111,4.666,7.445,8.79,7.445s8.79-3.333,8.79-7.445V12.373
	H20.67z"/>
<linearGradient id="XMLID_41_" gradientUnits="userSpaceOnUse" x1="18.377" y1="88.6275" x2="40.544" y2="88.6275" gradientTransform="matrix(1 0 0 -1 0 96.11)">
	<stop  offset="0" style="stop-color:#3F578D"/>
	<stop  offset="1" style="stop-color:#009DD1"/>
</linearGradient>
<path id="XMLID_10_" style="fill:url(#XMLID_41_);" d="M38.543,12.373H20.377c-1.1,0-2-0.9-2-2V4.592c0-1.1,0.9-2,2-2h18.167
	c1.1,0,2,0.9,2,2v5.781C40.543,11.473,39.643,12.373,38.543,12.373z"/>
<linearGradient id="XMLID_42_" gradientUnits="userSpaceOnUse" x1="23.328" y1="46.7195" x2="35.592" y2="46.7195" gradientTransform="matrix(1 0 0 -1 0 96.11)">
	<stop  offset="0" style="stop-color:#3F578D"/>
	<stop  offset="1" style="stop-color:#009DD1"/>
</linearGradient>
<path id="XMLID_7_" style="fill:url(#XMLID_42_);" d="M23.328,53.964c0,2.533,3.429,4.786,6.132,4.786s6.132-2.253,6.132-4.786
	V40.031H23.328V53.964z"/>
<linearGradient id="XMLID_43_" gradientUnits="userSpaceOnUse" x1="-474.6719" y1="46.7195" x2="-462.4079" y2="46.7195" gradientTransform="matrix(-1 0 0 -1 -439.0799 96.11)">
	<stop  offset="0" style="stop-color:#FFFFFF"/>
	<stop  offset="0.5" style="stop-color:#FFFFFF;stop-opacity:0"/>
</linearGradient>
<path id="XMLID_2_" style="fill:url(#XMLID_43_);" d="M35.592,53.964c0,2.533-3.429,4.786-6.132,4.786s-6.132-2.253-6.132-4.786
	V40.031h12.264V53.964z"/>
<g id="XMLID_17_">
	
		<linearGradient id="XMLID_47_" gradientUnits="userSpaceOnUse" x1="18.012" y1="47.2045" x2="40.908" y2="47.2045" gradientTransform="matrix(1 0 0 -1 0 96.11)">
		<stop  offset="0" style="stop-color:#3F578D"/>
		<stop  offset="1" style="stop-color:#009DD1"/>
	</linearGradient>
	<path id="XMLID_18_" style="fill:url(#XMLID_47_);" d="M35.592,33.744v20.22c0,2.533-3.429,4.786-6.132,4.786
		s-6.132-2.253-6.132-4.786v-20.22h-5.316v20.22c0,5.782,6.044,10.103,11.448,10.103s11.448-4.32,11.448-10.103v-20.22
		L35.592,33.744z"/>
	
		<linearGradient id="XMLID_48_" gradientUnits="userSpaceOnUse" x1="15.718" y1="86.3085" x2="43.201" y2="86.3085" gradientTransform="matrix(1 0 0 -1 0 96.11)">
		<stop  offset="0" style="stop-color:#3F578D"/>
		<stop  offset="1" style="stop-color:#009DD1"/>
	</linearGradient>
	<path id="XMLID_44_" style="fill:url(#XMLID_48_);" d="M18.012,14.364v5.305h5.316v-4.638h12.264v4.638h5.316v-5.305
		c1.366-0.813,2.293-2.289,2.293-3.991V4.592c0-2.568-2.09-4.658-4.658-4.658H20.376c-2.568,0-4.658,2.09-4.658,4.658v5.781
		C15.718,12.075,16.646,13.551,18.012,14.364z M21.035,5.25h16.851v4.465H21.035V5.25z"/>
</g>
<g id="XMLID_1_" style="opacity:0.15;">
	<path id="XMLID_11_" style="fill:#FFFFFF;" d="M20.07,1.708c-0.591,0-1.07,0.479-1.07,1.07v8.443c0,0.591,0.479,1.07,1.07,1.07
		c0.296,0,0.563-0.12,0.757-0.313s0.313-0.461,0.313-0.757V2.778C21.141,2.187,20.662,1.708,20.07,1.708z"/>
	<path id="XMLID_37_" style="fill:#FFFFFF;" d="M24.887,1.708c-0.591,0-1.07,0.479-1.07,1.07v8.443c0,0.591,0.479,1.07,1.07,1.07
		c0.296,0,0.563-0.12,0.757-0.313s0.313-0.461,0.313-0.757V2.778C25.958,2.187,25.479,1.708,24.887,1.708z"/>
	<path id="XMLID_39_" style="fill:#FFFFFF;" d="M29.704,1.708c-0.591,0-1.07,0.479-1.07,1.07v8.443c0,0.591,0.479,1.07,1.07,1.07
		c0.296,0,0.563-0.12,0.757-0.313c0.194-0.194,0.313-0.461,0.313-0.757V2.778C30.774,2.188,30.295,1.708,29.704,1.708z"/>
	<path id="XMLID_45_" style="fill:#FFFFFF;" d="M34.521,1.708c-0.591,0-1.07,0.479-1.07,1.07v8.443c0,0.591,0.479,1.07,1.07,1.07
		c0.296,0,0.563-0.12,0.757-0.313c0.194-0.194,0.313-0.461,0.313-0.757V2.778C35.591,2.187,35.112,1.708,34.521,1.708z"/>
	<path id="XMLID_46_" style="fill:#FFFFFF;" d="M39.338,1.708c-0.591,0-1.07,0.479-1.07,1.07v8.443c0,0.591,0.479,1.07,1.07,1.07
		c0.296,0,0.563-0.12,0.757-0.313c0.194-0.194,0.313-0.461,0.313-0.757V2.778C40.408,2.187,39.929,1.708,39.338,1.708z"/>
</g>
<g id="XMLID_3_" style="opacity:0.15;">
	<path id="XMLID_16_" style="fill:#FFFFFF;" d="M58.367,1.708c-0.591,0-1.07,0.479-1.07,1.07v8.443c0,0.591,0.479,1.07,1.07,1.07
		c0.296,0,0.563-0.12,0.757-0.313s0.313-0.461,0.313-0.757V2.778C59.437,2.187,58.958,1.708,58.367,1.708z"/>
	<path id="XMLID_32_" style="fill:#FFFFFF;" d="M63.183,1.708c-0.591,0-1.07,0.479-1.07,1.07v8.443c0,0.591,0.479,1.07,1.07,1.07
		c0.296,0,0.563-0.12,0.757-0.313c0.194-0.193,0.313-0.461,0.313-0.757V2.778C64.254,2.187,63.775,1.708,63.183,1.708z"/>
	<path id="XMLID_33_" style="fill:#FFFFFF;" d="M68,1.708c-0.591,0-1.07,0.479-1.07,1.07v8.443c0,0.591,0.479,1.07,1.07,1.07
		c0.296,0,0.563-0.12,0.757-0.313s0.313-0.461,0.313-0.757V2.778C69.07,2.188,68.591,1.708,68,1.708z"/>
	<path id="XMLID_34_" style="fill:#FFFFFF;" d="M72.817,1.708c-0.591,0-1.07,0.479-1.07,1.07v8.443c0,0.591,0.479,1.07,1.07,1.07
		c0.296,0,0.563-0.12,0.757-0.313c0.194-0.194,0.313-0.461,0.313-0.757V2.778C73.887,2.187,73.408,1.708,72.817,1.708z"/>
	<path id="XMLID_35_" style="fill:#FFFFFF;" d="M77.634,1.708c-0.591,0-1.07,0.479-1.07,1.07v8.443c0,0.591,0.479,1.07,1.07,1.07
		c0.296,0,0.563-0.12,0.757-0.313c0.194-0.194,0.313-0.461,0.313-0.757V2.778C78.704,2.187,78.225,1.708,77.634,1.708z"/>
</g>
<linearGradient id="XMLID_49_" gradientUnits="userSpaceOnUse" x1="52.9601" y1="42.1303" x2="89.1468" y2="5.9437" gradientTransform="matrix(1 0 0 -1 0 96.11)">
	<stop  offset="0" style="stop-color:#3F578D"/>
	<stop  offset="1" style="stop-color:#009DD1"/>
</linearGradient>
<path id="XMLID_13_" style="fill:url(#XMLID_49_);" d="M71.053,47.097c-14.451,0-26.208,11.204-26.208,24.976
	s11.757,24.976,26.208,24.976c14.452,0,26.209-11.204,26.209-24.976S85.505,47.097,71.053,47.097z"/>
<g id="XMLID_110_">
	<path id="XMLID_107_" style="fill:#FFFFFF;" d="M71.563,49.592h0.019c-0.001,2.397-0.001,4.793-0.001,7.19
		c2.837-0.029,5.67,0.779,8.09,2.254c3.285,1.989,5.79,5.228,6.865,8.917c0.867,2.946,0.84,6.15-0.081,9.08
		c-0.78,2.485-2.199,4.764-4.079,6.564c-1.969,1.9-4.448,3.268-7.108,3.91c-0.971,0.241-1.967,0.369-2.966,0.43h-1.495
		c-1.305-0.083-2.603-0.296-3.852-0.688c-3.602-1.109-6.752-3.584-8.702-6.806c-1.472-2.418-2.28-5.249-2.25-8.083
		c1.603,0,3.205-0.001,4.807,0.001c-0.022,2.486,0.887,4.958,2.476,6.865c1.496,1.815,3.603,3.119,5.899,3.639
		c2.986,0.697,6.253,0.03,8.721-1.791c2.36-1.702,3.978-4.394,4.353-7.282c0.187-1.453,0.094-2.946-0.31-4.356
		c-0.617-2.19-1.951-4.168-3.747-5.564c-1.87-1.467-4.24-2.306-6.622-2.278c-0.002,2.396,0,4.791-0.001,7.187
		c-4-3.2-8.001-6.4-12-9.601C63.574,55.981,67.57,52.788,71.563,49.592z"/>
</g>
<linearGradient id="XMLID_50_" gradientUnits="userSpaceOnUse" x1="-0.028" y1="50.78" x2="97.116" y2="50.78" gradientTransform="matrix(1 0 0 -1 0 96.11)">
	<stop  offset="0" style="stop-color:#3F578D"/>
	<stop  offset="1" style="stop-color:#009DD1"/>
</linearGradient>
<path id="XMLID_12_" style="fill:url(#XMLID_50_);" d="M39.844,72.072c0-0.658,0.03-1.309,0.074-1.957H6.972V30.207h83.144v18.157
	c2.727,2.028,5.096,4.477,7,7.248V17.045c0-1.933-1.567-3.5-3.5-3.5s-3.5,1.567-3.5,3.5v6.161H6.972v-6.161
	c0-1.933-1.567-3.5-3.5-3.5s-3.5,1.567-3.5,3.5v56.57c0,1.933,1.567,3.5,3.5,3.5h36.823C40.004,75.474,39.844,73.791,39.844,72.072z
	"/>
<linearGradient id="XMLID_51_" gradientUnits="userSpaceOnUse" x1="61.785" y1="54.3715" x2="74.049" y2="54.3715" gradientTransform="matrix(1 0 0 -1 0 96.11)">
	<stop  offset="0" style="stop-color:#3F578D"/>
	<stop  offset="1" style="stop-color:#009DD1"/>
</linearGradient>
<path id="XMLID_19_" style="fill:url(#XMLID_51_);" d="M71.053,42.097c1.011,0,2.009,0.05,2.996,0.141v-2.207H61.785v3.415
	C64.714,42.569,67.827,42.097,71.053,42.097z"/>
<linearGradient id="XMLID_53_" gradientUnits="userSpaceOnUse" x1="74" y1="54.4025" x2="61.736" y2="54.4025" gradientTransform="matrix(1 0 0 -1 0 96.11)">
	<stop  offset="0" style="stop-color:#FFFFFF"/>
	<stop  offset="0.5" style="stop-color:#FFFFFF;stop-opacity:0"/>
</linearGradient>
<path id="XMLID_31_" style="fill:url(#XMLID_53_);" d="M71.004,42.065c1.011,0,2.009,0.05,2.996,0.141V40H61.736v3.415
	C64.666,42.538,67.779,42.065,71.004,42.065z"/>
</svg>
