<?xml version="1.0" encoding="iso-8859-1"?>

<svg version="1.1" id="Capa_1" xmlns="http://www.w3.org/2000/svg" xmlns:xlink="http://www.w3.org/1999/xlink" x="0px" y="0px"
	 viewBox="-372 644 97 97" style="enable-background:new -372 644 97 97;" xml:space="preserve">
<polygon id="XMLID_6_" style="fill:#3F578D;" points="-353.068,691.608 -372,691.608 -372,700.608 -356.603,700.608 "/>
<path id="XMLID_43_" style="fill:#3F578D;" d="M-340.96,727.75c0-2.76,2.24-5,5-5l0,0c2.76,0,5,2.24,5,5l0,0
	c0,2.77-2.24,5.01-5,5.01l0,0C-338.72,732.76-340.96,730.52-340.96,727.75z"/>
<path id="XMLID_32_" style="fill:#3F578D;" d="M-292.7,664.46c0-2.76,2.24-5,5-5l0,0c2.76,0,5,2.24,5,5l0,0c0,2.76-2.24,5-5,5l0,0
	C-290.46,669.46-292.7,667.22-292.7,664.46z M-307.7,664.46c0-2.76,2.24-5,5-5l0,0c2.76,0,5,2.24,5,5l0,0c0,2.76-2.24,5-5,5l0,0
	C-305.46,669.46-307.7,667.22-307.7,664.46z"/>
<path id="XMLID_16_" style="fill:#3F578D;" d="M-371.36,664.47c0-2.76,2.23-5,5-5l0,0c2.76,0,5,2.23,5,5l0,0c0,2.76-2.24,5-5,5l0,0
	C-369.12,669.47-371.36,667.23-371.36,664.47z"/>
<linearGradient id="XMLID_7_" gradientUnits="userSpaceOnUse" x1="-319.2726" y1="698.0975" x2="-283.0859" y2="734.2842">
	<stop  offset="0" style="stop-color:#3F578D"/>
	<stop  offset="1" style="stop-color:#009DD1"/>
</linearGradient>
<path id="XMLID_10_" style="fill:url(#XMLID_7_);" d="M-301.18,691.215c-14.451,0-26.208,11.204-26.208,24.976
	c0,13.772,11.757,24.977,26.208,24.977c14.452,0,26.209-11.204,26.209-24.977C-274.971,702.419-286.728,691.215-301.18,691.215z"/>
<g id="XMLID_18_">
	<path id="XMLID_19_" style="fill:#FFFFFF;" d="M-314.939,714.167c0,6.349,5.144,11.496,11.495,11.496
		c1.852,0,3.599-0.44,5.148-1.217l5.751,5.751l0.014-0.014c0.575,0.586,1.38,0.947,2.281,0.947c1.763,0,3.169-1.38,3.169-3.145
		c0-0.914-0.365-1.722-0.96-2.291l0.019-0.019l-5.574-5.574c1.046-1.732,1.648-3.762,1.648-5.934
		c0-6.348-5.145-11.496-11.496-11.496C-309.794,702.672-314.939,707.819-314.939,714.167z M-310.697,713.958
		c0-3.968,3.215-7.185,7.184-7.185s7.185,3.217,7.185,7.185c0,3.968-3.216,7.185-7.185,7.185S-310.698,717.926-310.697,713.958z"/>
</g>
<circle id="XMLID_27_" style="fill:#00A3D3;" cx="-334.362" cy="664.5" r="12.5"/>
<g id="XMLID_4_">
	<path id="XMLID_9_" style="fill:#00A3D3;" d="M-352.698,718.021l11.938-30.394c-1.626-0.451-3.183-1.068-4.652-1.833
		l-11.942,30.403c-0.699-0.121-1.413-0.197-2.146-0.197c-6.904,0-12.5,5.596-12.5,12.5s5.596,12.5,12.5,12.5s12.5-5.596,12.5-12.5
		C-347,724.107-349.271,720.25-352.698,718.021z"/>
</g>
<path id="XMLID_15_" style="fill:#C9150B;" d="M-334.362,647c9.665,0,17.5,7.835,17.5,17.5s-7.835,17.5-17.5,17.5
	c-9.665,0-17.5-7.835-17.5-17.5S-344.027,647-334.362,647 M-334.362,644c-11.304,0-20.5,9.196-20.5,20.5s9.196,20.5,20.5,20.5
	s20.5-9.196,20.5-20.5S-323.058,644-334.362,644L-334.362,644z"/>
<g id="XMLID_2_">
	<path id="XMLID_8_" style="fill:#3F578D;" d="M-275,699.903v-8.295h-8.352C-280.042,693.829-277.203,696.649-275,699.903z"/>
	<path id="XMLID_11_" style="fill:#3F578D;" d="M-319.007,691.608h-17.945l-3.535,9h12.657
		C-325.568,697.053-322.554,693.989-319.007,691.608z"/>
</g>
</svg>
