<?xml version="1.0" encoding="iso-8859-1"?>

<svg version="1.1" id="Capa_1" xmlns="http://www.w3.org/2000/svg" xmlns:xlink="http://www.w3.org/1999/xlink" x="0px" y="0px"
	 viewBox="0 0 97 97" style="enable-background:new 0 0 97 97;" xml:space="preserve">
<path id="XMLID_37_" style="fill:#3F578D;" d="M80.3,13.46c0-2.76,2.24-5,5-5l0,0c2.76,0,5,2.24,5,5l0,0c0,2.76-2.24,5-5,5l0,0
	C82.54,18.46,80.3,16.22,80.3,13.46z M65.3,13.46c0-2.76,2.24-5,5-5l0,0c2.76,0,5,2.24,5,5l0,0c0,2.76-2.24,5-5,5l0,0
	C67.54,18.46,65.3,16.22,65.3,13.46z M50.3,13.46c0-2.76,2.24-5,5-5l0,0c2.76,0,5,2.24,5,5l0,0c0,2.76-2.24,5-5,5l0,0
	C52.54,18.46,50.3,16.22,50.3,13.46z"/>
<path id="XMLID_6_" style="fill:#3F578D;" d="M0.64,13.47c0-2.76,2.23-5,5-5l0,0c2.76,0,5,2.23,5,5l0,0c0,2.76-2.24,5-5,5l0,0
	C2.88,18.47,0.64,16.23,0.64,13.47z"/>
<path id="XMLID_4_" style="fill:#3F578D;" d="M79.479,83.76c0-2.77,2.24-5,5-5l0,0c2.761,0,5,2.23,5,5l0,0c0,2.76-2.239,5-5,5l0,0
	C81.72,88.76,79.479,86.52,79.479,83.76z M64.479,83.76c0-2.77,2.24-5,5-5l0,0c2.761,0,5,2.23,5,5l0,0c0,2.76-2.239,5-5,5l0,0
	C66.72,88.76,64.479,86.52,64.479,83.76z M49.479,83.76c0-2.77,2.24-5,5-5l0,0c2.761,0,5,2.23,5,5l0,0c0,2.76-2.239,5-5,5l0,0
	C51.72,88.76,49.479,86.52,49.479,83.76z M34.48,83.76c0-2.77,2.24-5,5-5l0,0c2.76,0,5,2.23,5,5l0,0c0,2.76-2.24,5-5,5l0,0
	C36.72,88.76,34.48,86.52,34.48,83.76z"/>
<path id="XMLID_3_" style="fill:#FFFFFF;" d="M30.12,0c6.904,0,12.5,5.596,12.5,12.5S37.024,25,30.12,25s-12.5-5.596-12.5-12.5
	S23.216,0,30.12,0 M30.12-7c-10.752,0-19.5,8.748-19.5,19.5S19.368,32,30.12,32s19.5-8.748,19.5-19.5S40.872-7,30.12-7L30.12-7z"/>
<g id="XMLID_20_">
	<circle id="XMLID_24_" style="fill:#00A3D3;" cx="12.5" cy="84.5" r="12.5"/>
	<path id="XMLID_7_" style="fill:#FFFFFF;" d="M12.5,72C19.404,72,25,77.596,25,84.5S19.404,97,12.5,97S0,91.404,0,84.5
		S5.596,72,12.5,72"/>
</g>
<path id="XMLID_8_" style="fill:#00A3D3;" d="M65.111,36c-0.863,0-1.705,0.087-2.519,0.254s-1.599,0.412-2.346,0.728
	c-2.243,0.949-4.152,2.534-5.5,4.529c-1.348,1.995-2.135,4.4-2.135,6.989c0,2.589,0.787,4.994,2.135,6.989
	c1.348,1.995,3.256,3.58,5.5,4.529c0.748,0.316,1.533,0.562,2.346,0.728S64.248,61,65.111,61c6.904,0,12.5-5.596,12.5-12.5
	S72.015,36,65.111,36z"/>
<path id="XMLID_11_" style="fill:#C9150B;" d="M65.111,31c9.665,0,17.5,7.835,17.5,17.5S74.776,66,65.111,66
	c-9.665,0-17.5-7.835-17.5-17.5S55.446,31,65.111,31 M65.111,28c-11.304,0-20.5,9.196-20.5,20.5S53.808,69,65.111,69
	s20.5-9.196,20.5-20.5S76.415,28,65.111,28L65.111,28z"/>
<path id="XMLID_45_" style="fill:#3F578D;" d="M89.717,44.11c0.254,1.426,0.394,2.892,0.394,4.39c0,1.575-0.153,3.114-0.433,4.609
	H97v-9H89.717z"/>
<g id="XMLID_12_">
	<polygon id="XMLID_42_" style="fill:#3F578D;" points="14.663,44.11 0,44.11 0,53.109 12.461,53.109 	"/>
	<path id="XMLID_44_" style="fill:#3F578D;" d="M40.505,44.11h-10.4l-2.202,9h12.641c-0.28-1.495-0.433-3.034-0.433-4.609
		C40.111,47.002,40.251,45.536,40.505,44.11z"/>
</g>
<path id="XMLID_10_" style="fill:#00A3D3;" d="M40.448,19.539c1.369-2.005,2.172-4.427,2.172-7.039c0-6.904-5.596-12.5-12.5-12.5
	s-12.5,5.596-12.5,12.5c0,4.992,2.933,9.287,7.163,11.291L12.979,72.024C12.819,72.018,12.662,72,12.5,72C5.596,72,0,77.596,0,84.5
	S5.596,97,12.5,97S25,91.404,25,84.5c0-4.992-2.933-9.287-7.163-11.291l11.804-48.234C29.801,24.982,29.958,25,30.12,25
	c2.483,0,4.792-0.733,6.737-1.982l9.135,9.398c1.076-1.277,2.279-2.444,3.587-3.484L40.448,19.539z"/>
</svg>
